<svg width="175" height="106" viewBox="0 0 175 106" fill="none" xmlns="http://www.w3.org/2000/svg">
<path d="M95.1834 36.8706C95.1082 30.4246 102.161 26.2923 108.326 29.1705L158.812 52.7405C165.483 55.855 166.014 64.6625 159.74 68.1542L109.854 95.9216C103.737 99.3261 95.8622 95.009 95.7828 88.2079L95.1834 36.8706Z" fill="#FF9A01"/>
<path d="M9.74716 75.7736H4.93759V40.3732H15.3868C19.5209 40.3732 22.6622 41.2684 24.8106 43.0588C26.9754 44.8329 28.0577 47.4045 28.0577 50.7736C28.0577 53.1662 27.4799 55.1763 26.3243 56.8039C25.1687 58.4152 23.4923 59.6034 21.295 60.3683L29.3517 75.7736H23.8097L16.2901 61.2228H9.74716V75.7736ZM15.3868 56.9748C20.4975 56.9748 23.0528 54.9077 23.0528 50.7736C23.0528 48.7066 22.4262 47.1685 21.1729 46.1594C19.9197 45.134 17.991 44.6213 15.3868 44.6213H9.74716V56.9748H15.3868ZM37.8722 63.7619C38.0024 66.4312 38.7185 68.4738 40.0206 69.8898C41.3227 71.3058 43.1537 72.0139 45.5138 72.0139C46.8158 72.0139 48.0691 71.8755 49.2735 71.5988C50.4942 71.3221 51.8777 70.8501 53.4239 70.1828L54.9132 73.674C53.1391 74.5366 51.4789 75.1714 49.9327 75.5783C48.3865 75.9689 46.8321 76.1642 45.2696 76.1642C41.3959 76.1642 38.393 75.0005 36.2608 72.673C34.1287 70.3456 33.0626 67.0822 33.0626 62.883C33.0626 58.6838 34.1124 55.4286 36.212 53.1174C38.3116 50.7899 41.282 49.6262 45.1231 49.6262C48.7201 49.6262 51.3976 50.7085 53.1554 52.8732C54.9295 55.0379 55.8165 58.3176 55.8165 62.7121V63.7619H37.8722ZM50.9581 59.8312C50.8279 57.8293 50.2582 56.3238 49.2491 55.3146C48.2563 54.2892 46.881 53.7766 45.1231 53.7766C41.2169 53.7766 38.8813 55.7948 38.1163 59.8312H50.9581ZM78.4239 50.0656V53.2639L65.1183 71.6232H78.961V75.7736H59.2101V72.4289L72.4181 54.216H59.9181V50.0656H78.4239ZM84.4786 40.5685H89.1661V45.3781H84.4786V40.5685ZM84.4786 50.0656H89.1661V75.7736H84.4786V50.0656ZM123.614 73.6252C121.987 74.3902 120.139 75.0005 118.072 75.4562C116.005 75.8957 114.02 76.1154 112.115 76.1154C106.777 76.1154 102.7 74.5611 99.8839 71.4523C97.0681 68.3273 95.6602 63.8351 95.6602 57.9758C95.6602 54.2486 96.3276 51.034 97.6622 48.3322C98.9968 45.6304 100.917 43.5633 103.424 42.131C105.947 40.6988 108.958 39.9826 112.457 39.9826C114.296 39.9826 116.152 40.2349 118.024 40.7394C119.912 41.2277 121.694 41.952 123.37 42.9123L121.368 46.8185C119.773 46.021 118.26 45.4351 116.827 45.0607C115.395 44.6701 113.938 44.4748 112.457 44.4748C108.697 44.4748 105.792 45.6467 103.741 47.9904C101.691 50.3179 100.665 53.6463 100.665 57.9758C100.665 62.3377 101.674 65.7069 103.692 68.0832C105.711 70.4432 108.583 71.6232 112.311 71.6232C114.443 71.6232 116.616 71.2896 118.829 70.6223V58.1711H123.614V73.6252ZM140.729 49.5773C144.586 49.5773 147.581 50.7492 149.713 53.093C151.845 55.4204 152.911 58.6838 152.911 62.883C152.911 67.0822 151.845 70.3456 149.713 72.673C147.581 75.0005 144.586 76.1642 140.729 76.1642C136.855 76.1642 133.852 75.0005 131.72 72.673C129.588 70.3456 128.522 67.0822 128.522 62.883C128.522 58.6838 129.588 55.4204 131.72 53.093C133.852 50.7492 136.855 49.5773 140.729 49.5773ZM140.729 53.7277C138.32 53.7277 136.481 54.509 135.211 56.0715C133.958 57.634 133.331 59.9045 133.331 62.883C133.331 65.8452 133.958 68.1076 135.211 69.6701C136.481 71.2326 138.32 72.0139 140.729 72.0139C143.121 72.0139 144.952 71.2326 146.222 69.6701C147.491 68.1076 148.126 65.8452 148.126 62.883C148.126 59.9208 147.491 57.6584 146.222 56.0959C144.952 54.5171 143.121 53.7277 140.729 53.7277Z" fill="white"/>
</svg>
