<svg width="72" height="69" viewBox="0 0 72 69" fill="none" xmlns="http://www.w3.org/2000/svg">
<path d="M2.24596 8.63186C2.17076 2.18585 9.22355 -1.94645 15.3886 0.931754L65.8745 24.5018C72.5455 27.6163 73.0766 36.4238 66.8026 39.9155L16.9166 67.6829C10.7996 71.0874 2.92475 66.7703 2.84535 59.9692L2.24596 8.63186Z" fill="#FF9A01"/>
<path d="M29.1562 43.5234C28 45.1797 26.3828 46.4219 24.3047 47.25C22.2422 48.0625 19.8359 48.4688 17.0859 48.4688C14.3047 48.4688 11.8359 47.8203 9.67969 46.5234C7.52344 45.2109 5.85156 43.3516 4.66406 40.9453C3.49219 38.5391 2.89062 35.75 2.85938 32.5781V29.6016C2.85938 24.4609 4.05469 20.4766 6.44531 17.6484C8.85156 14.8203 12.2266 13.4062 16.5703 13.4062C20.1328 13.4062 23 14.3203 25.1719 16.1484C27.3438 17.9609 28.6719 20.5391 29.1562 23.8828H24.6562C23.8125 19.3672 21.125 17.1094 16.5938 17.1094C13.5781 17.1094 11.2891 18.1719 9.72656 20.2969C8.17969 22.4062 7.39844 25.4688 7.38281 29.4844V32.2734C7.38281 36.1016 8.25781 39.1484 10.0078 41.4141C11.7578 43.6641 14.125 44.7891 17.1094 44.7891C18.7969 44.7891 20.2734 44.6016 21.5391 44.2266C22.8047 43.8516 23.8516 43.2188 24.6797 42.3281V34.6641H16.7812V31.0078H29.1562V43.5234ZM34.8516 35.0859C34.8516 32.6016 35.3359 30.3672 36.3047 28.3828C37.2891 26.3984 38.6484 24.8672 40.3828 23.7891C42.1328 22.7109 44.125 22.1719 46.3594 22.1719C49.8125 22.1719 52.6016 23.3672 54.7266 25.7578C56.8672 28.1484 57.9375 31.3281 57.9375 35.2969V35.6016C57.9375 38.0703 57.4609 40.2891 56.5078 42.2578C55.5703 44.2109 54.2188 45.7344 52.4531 46.8281C50.7031 47.9219 48.6875 48.4688 46.4062 48.4688C42.9688 48.4688 40.1797 47.2734 38.0391 44.8828C35.9141 42.4922 34.8516 39.3281 34.8516 35.3906V35.0859ZM39.2109 35.6016C39.2109 38.4141 39.8594 40.6719 41.1562 42.375C42.4688 44.0781 44.2188 44.9297 46.4062 44.9297C48.6094 44.9297 50.3594 44.0703 51.6562 42.3516C52.9531 40.6172 53.6016 38.1953 53.6016 35.0859C53.6016 32.3047 52.9375 30.0547 51.6094 28.3359C50.2969 26.6016 48.5469 25.7344 46.3594 25.7344C44.2188 25.7344 42.4922 26.5859 41.1797 28.2891C39.8672 29.9922 39.2109 32.4297 39.2109 35.6016Z" fill="white"/>
</svg>
