<svg xmlns="http://www.w3.org/2000/svg" width="788" height="892.583" viewBox="0 0 788 700">
  <g id="Group_4131" data-name="Group 4131" transform="translate(-146 -126)">
    <g id="undraw_happy_news_re_tsbd" transform="translate(146.917 126)">
      <path id="Path_30337" data-name="Path 30337" d="M678.618,702.712a9.761,9.761,0,0,0,13.665-12.227l.54-2.688A26.223,26.223,0,0,1,736.9,708.3c-1.209,29.419.245,61.164-19.309,84.881,89.244-72.927,129.936-197.161,102.682-308.9-13.373-18.635-19.612-43.39-13.614-65.823,7.526,7.319,22.2,5.353,19.954-7.318-1.2-5.008-2.447-10-3.65-15.008,51.4-20.058,64.822,56.372,3.934,87.49a312.943,312.943,0,0,1,8.071,64.751,131.578,131.578,0,0,1,33.389-51.789c14.592-13.138,33.887-20.864,51.838-29.679,21.843-10.754,46.085,10.566,37.484,33.327-14.54-1.86-24.829,15.519-11.634,24.859-23.175,38.922-67.613,63.66-112.762,64.053a314.158,314.158,0,0,1-41.006,125.924c28.842-43.857,84.66-31.23,128.771-33.1a15.2,15.2,0,0,1,14.3,23.869,87.78,87.78,0,0,0-17.382.707,13.267,13.267,0,0,0-4.857,24.514c-38.7,35.474-98.656,43.1-145.716,20.463a322.975,322.975,0,0,1-46.839,47.839l-69.964-33.35c.12-.9.277-1.807.421-2.692a88.06,88.06,0,0,0,19.909,8.075c-7.464-28.453-15.781-45.119,7.69-68.685Z" transform="translate(-172.38 -41.871)" fill="#f2f2f2"/>
      <path id="Path_30338" data-name="Path 30338" d="M730.139,630.163a9.761,9.761,0,0,1-17.268-6.17l-1.514-2.286a26.223,26.223,0,0,0-33.091,35.618c12.216,26.79,22.845,56.738,49.9,71.328C618.006,694.776,533.458,595.068,516.551,481.3c5.356-22.3,1.8-47.582-12.22-66.1-4.209,9.617-18.537,13.33-21.24.75-.775-5.091-1.505-10.185-2.281-15.276-55.171.813-38.77,76.658,29.358,82.511a312.949,312.949,0,0,0,16.949,63.013,131.578,131.578,0,0,0-50.457-35.368c-18.47-6.664-39.254-6.541-59.2-7.933-24.286-1.721-38.695,27.169-22.145,45,12.765-7.208,28.849,5.007,20.152,18.634,36.145,27.3,86.631,33.454,128.594,16.787a314.161,314.161,0,0,0,85.476,101.154c-43.255-29.738-90.186,3.01-131.744,17.919a15.2,15.2,0,0,0-4.239,27.5,87.775,87.775,0,0,1,16.364-5.9,13.267,13.267,0,0,1,13.745,20.871c49.218,18.257,107.626,2.7,142.671-36.013A322.992,322.992,0,0,0,727.754,735.5l52.216-57.277c-.449-.786-.938-1.569-1.406-2.334a88.063,88.063,0,0,1-15.393,14.988c-3.82-29.166-2.4-47.738-33.03-60.71Z" transform="translate(-347.527 -36.629)" fill="#f2f2f2"/>
      <path id="Path_30339" data-name="Path 30339" d="M622.211,533.867a9.76,9.76,0,0,0,4.526-17.769l-1.05-2.533a26.223,26.223,0,0,1,48.027-7.556c15.4,25.1,34.305,50.639,31.3,81.229,33.425-110.3-2.062-236.118-86.985-313.68-21.491-8.013-40.472-25.085-48-47.052,10.328,1.88,21.41-7.932,12.485-17.2-3.791-3.486-7.607-6.937-11.4-10.424,31.487-45.31,85.241,10.655,52.046,70.436a312.935,312.935,0,0,1,42.8,49.252,131.577,131.577,0,0,1-1.157-61.608c4.788-19.043,16.5-36.214,26.485-53.54,12.137-21.106,44.148-16.923,49.7,6.767-13.108,6.563-11.959,26.727,4.2,27.123,2.462,45.232-20.634,90.545-57.9,116.044a314.16,314.16,0,0,1,36.168,127.4c-.51-52.489,52.867-73.128,88.444-99.273a15.2,15.2,0,0,1,25.178,11.842A87.778,87.778,0,0,0,823.046,403.6a13.267,13.267,0,0,0,9.635,23.058c-12.344,51.023-57.869,90.784-109.556,98.231a322.988,322.988,0,0,1-12.21,65.828l-76.674,11.323c-.4-.811-.778-1.654-1.151-2.47a88.061,88.061,0,0,0,21.03-4.4c-22.06-19.458-38.256-28.656-31.911-61.306Z" transform="translate(-226.162 -182.36)" fill="#f2f2f2"/>
      <path id="Path_30340" data-name="Path 30340" d="M672.943,436.672c-34.907,0-53.841-4.266-60.453-13.371-5.835-8.034-1.923-18.634,2.606-30.908,3.255-8.822,6.944-18.82,6.944-28.716,0-48.131,24.405-72.537,72.537-72.537,23.948,0,49.661,12.721,68.782,34.03,17.383,19.372,26.043,42.556,23.759,63.609h0c-1.874,17.265-9.91,28.62-25.291,35.734l-.9.416-.256-.958a40.926,40.926,0,0,0-6.627-13.741,47.024,47.024,0,0,1-4.794,18.631l-.164.331-.355.1c-17.409,4.959-38.069,6.3-54.124,6.918Q682.888,436.668,672.943,436.672Z" transform="translate(-199.776 -109.749)" fill="#2f2e41"/>
      <path id="Path_30341" data-name="Path 30341" d="M748.546,447.123a26.124,26.124,0,0,0-40.673-12.282L593.054,503.489l-35.929-87.666a25.508,25.508,0,1,0-28.183,10.131c2.214,25.28,14.521,138.272,57.334,134.164,35.987-3.452,125.356-62.97,153.114-83.607A26.126,26.126,0,0,0,748.546,447.123Z" transform="translate(-265.867 -53.14)" fill="#ffb6b6"/>
      <path id="Path_30342" data-name="Path 30342" d="M791.21,829.781H691.276l-16.758-82.859-5.436,82.859h-92.83a1893.559,1893.559,0,0,1,10.155-194.816l1.151-3.918,1.818-6.27,1.151-3.935,19.21-65.967,1.517-5.236H726.927a169.327,169.327,0,0,1,18.359,20.277c1.884,2.4,3.852,5,5.87,7.8,1.4,1.984,2.852,4.069,4.3,6.253a210.1,210.1,0,0,1,28.514,62.7v.017q1.526,5.728,2.7,11.723v.017c.7,3.552,1.317,7.154,1.8,10.839.367,2.685.684,5.4.917,8.154a186.931,186.931,0,0,1-1.451,45.723Z" transform="translate(-222.005 62.802)" fill="#2f2e41"/>
      <ellipse id="Ellipse_2173" data-name="Ellipse 2173" cx="12.601" cy="8.766" rx="12.601" ry="8.766" transform="translate(21.278 123.134) rotate(-21.162)" fill="#e6e6e6"/>
      <ellipse id="Ellipse_2174" data-name="Ellipse 2174" cx="12.601" cy="8.766" rx="12.601" ry="8.766" transform="translate(102.992 112.652) rotate(-21.162)" fill="#3f3d56"/>
      <ellipse id="Ellipse_2175" data-name="Ellipse 2175" cx="12.601" cy="8.766" rx="12.601" ry="8.766" transform="translate(14.192 192.85) rotate(-21.162)" fill="#ff6584"/>
      <ellipse id="Ellipse_2176" data-name="Ellipse 2176" cx="5.54" cy="7.964" rx="5.54" ry="7.964" transform="matrix(0.973, -0.23, 0.23, 0.973, -0.432, 221.178)" fill="#e6e6e6"/>
      <ellipse id="Ellipse_2177" data-name="Ellipse 2177" cx="5.54" cy="7.964" rx="5.54" ry="7.964" transform="matrix(0.973, -0.23, 0.23, 0.973, -0.917, 273.24)" fill="#3f3d56"/>
      <ellipse id="Ellipse_2178" data-name="Ellipse 2178" cx="5.54" cy="7.964" rx="5.54" ry="7.964" transform="matrix(0.973, -0.23, 0.23, 0.973, 70.8, 165.404)" fill="#e6e6e6"/>
      <ellipse id="Ellipse_2179" data-name="Ellipse 2179" cx="5.54" cy="7.964" rx="5.54" ry="7.964" transform="matrix(0.973, -0.23, 0.23, 0.973, 27.764, 154.954)" fill="#ff6584"/>
      <ellipse id="Ellipse_2180" data-name="Ellipse 2180" cx="5.54" cy="7.964" rx="5.54" ry="7.964" transform="matrix(0.973, -0.23, 0.23, 0.973, 73.378, 107.012)" fill="#3f3d56"/>
      <ellipse id="Ellipse_2181" data-name="Ellipse 2181" cx="8.766" cy="12.601" rx="8.766" ry="12.601" transform="translate(78.785 471.918) rotate(-49.596)" fill="#e6e6e6"/>
      <ellipse id="Ellipse_2182" data-name="Ellipse 2182" cx="8.766" cy="12.601" rx="8.766" ry="12.601" transform="translate(30.659 405.053) rotate(-49.596)" fill="#3f3d56"/>
      <ellipse id="Ellipse_2183" data-name="Ellipse 2183" cx="8.766" cy="12.601" rx="8.766" ry="12.601" transform="translate(143.464 444.955) rotate(-49.596)" fill="#ff6584"/>
      <ellipse id="Ellipse_2184" data-name="Ellipse 2184" cx="7.964" cy="5.54" rx="7.964" ry="5.54" transform="matrix(0.746, -0.666, 0.666, 0.746, 187.146, 452.389)" fill="#e6e6e6"/>
      <ellipse id="Ellipse_2185" data-name="Ellipse 2185" cx="7.964" cy="5.54" rx="7.964" ry="5.54" transform="matrix(0.746, -0.666, 0.666, 0.746, 233.161, 428.027)" fill="#3f3d56"/>
      <ellipse id="Ellipse_2186" data-name="Ellipse 2186" cx="7.964" cy="5.54" rx="7.964" ry="5.54" transform="matrix(0.746, -0.666, 0.666, 0.746, 104.187, 416.307)" fill="#e6e6e6"/>
      <ellipse id="Ellipse_2187" data-name="Ellipse 2187" cx="7.964" cy="5.54" rx="7.964" ry="5.54" transform="matrix(0.746, -0.666, 0.666, 0.746, 115.487, 459.128)" fill="#ff6584"/>
      <ellipse id="Ellipse_2188" data-name="Ellipse 2188" cx="7.964" cy="5.54" rx="7.964" ry="5.54" transform="matrix(0.746, -0.666, 0.666, 0.746, 51.609, 441.842)" fill="#3f3d56"/>
      <ellipse id="Ellipse_2189" data-name="Ellipse 2189" cx="8.766" cy="12.601" rx="8.766" ry="12.601" transform="translate(407.973 33.982) rotate(-26.188)" fill="#e6e6e6"/>
      <ellipse id="Ellipse_2190" data-name="Ellipse 2190" cx="8.766" cy="12.601" rx="8.766" ry="12.601" transform="translate(425.576 114.464) rotate(-26.188)" fill="#3f3d56"/>
      <ellipse id="Ellipse_2191" data-name="Ellipse 2191" cx="8.766" cy="12.601" rx="8.766" ry="12.601" transform="translate(337.906 33.032) rotate(-26.188)" fill="#ff6584"/>
      <ellipse id="Ellipse_2192" data-name="Ellipse 2192" cx="7.964" cy="5.54" rx="7.964" ry="5.54" transform="translate(309.018 18.233) rotate(-18.343)" fill="#e6e6e6"/>
      <ellipse id="Ellipse_2193" data-name="Ellipse 2193" cx="7.964" cy="5.54" rx="7.964" ry="5.54" transform="translate(257.111 22.31) rotate(-18.343)" fill="#3f3d56"/>
      <ellipse id="Ellipse_2194" data-name="Ellipse 2194" cx="7.964" cy="5.54" rx="7.964" ry="5.54" transform="translate(370.817 84.304) rotate(-18.343)" fill="#e6e6e6"/>
      <ellipse id="Ellipse_2195" data-name="Ellipse 2195" cx="7.964" cy="5.54" rx="7.964" ry="5.54" transform="translate(377.456 40.519) rotate(-18.343)" fill="#ff6584"/>
      <ellipse id="Ellipse_2196" data-name="Ellipse 2196" cx="7.964" cy="5.54" rx="7.964" ry="5.54" transform="translate(429.21 81.758) rotate(-18.343)" fill="#3f3d56"/>
      <path id="Path_30343" data-name="Path 30343" d="M667.4,387.585l55.055-2.836,25.571,40.406s48.113,8.044,44.778,64.739S734.26,596.34,734.26,596.34l2.36,29.524-4.1,11.711.526,6.575,5.591,6.964.576,7.2L734.26,669.71,741,680.62,599.368,666.9l-5.179-18.866,7.555-10.131-4.22-13.214,6.344-12.71,3.308-40.372s-36.192-54.373,5.355-95.326l16.675-28.348,18.658-22.764Z" transform="translate(-211.113 -47.264)" fill="#6c63ff"/>
      <circle id="Ellipse_2197" data-name="Ellipse 2197" cx="58.336" cy="58.336" r="58.336" transform="translate(425.316 212.24)" fill="#ffb6b6"/>
      <path id="Path_30344" data-name="Path 30344" d="M677.9,370.816q-7.54,0-15.073-.425l-.9-.05.118-.891a40.86,40.86,0,0,0-1.223-16.63,47.03,47.03,0,0,1-11.461,16.187l-.278.255-.375-.041a287.893,287.893,0,0,1-40.438-7.374l-.509-.13-.1-.515a76.341,76.341,0,0,1-1.534-14.8c0-15.534,5.632-28.609,15.859-36.815,11.131-8.933,27.088-11.68,44.946-7.74h57.1a23.706,23.706,0,0,1,23.679,23.679v36.162l-.623.163a273.158,273.158,0,0,1-69.194,8.97Z" transform="translate(-202.06 -103.776)" fill="#2f2e41"/>
      <path id="Path_30345" data-name="Path 30345" d="M413.16,338.718a10.278,10.278,0,0,0-6.13,13.161l61.6,169.034a10.278,10.278,0,0,0,13.161,6.131l239.092-87.136a10.278,10.278,0,0,0,6.13-13.161l-61.6-169.033a10.278,10.278,0,0,0-13.161-6.131Z" transform="translate(-335.375 -136.568)" fill="#ccc"/>
      <path id="Path_30346" data-name="Path 30346" d="M628.525,459.641,482.176,512.977a11.062,11.062,0,0,1-14.165-6.6L412.137,353.067a11.062,11.062,0,0,1,6.6-14.165L644.316,256.69a11.062,11.062,0,0,1,14.165,6.6l27,74.079a95.489,95.489,0,0,1-56.954,122.274Z" transform="translate(-331.998 -133.19)" fill="#fff"/>
      <path id="Path_30352" data-name="Path 30352" d="M797.535,419.7,735.81,567.4a25.839,25.839,0,0,1-33.468,13.934h0a25.84,25.84,0,0,1-13.766-34.881L757.4,394.99l37.938-93.8a22.549,22.549,0,1,1,28.829,2.525Z" transform="translate(-148.64 -128.749)" fill="#ffb6b6"/>
    </g>
    <text id="Subiecte_Reziden_iat_MG" data-name="Subiecte
Rezidențiat MG" transform="translate(369.605 354.422) rotate(-20)" font-size="30" font-family="Candara-Bold, Candara" font-weight="700"><tspan x="-55.496" y="0">Subiecte</tspan><tspan x="-98.577" y="37">Rezidențiat MG</tspan></text>
  </g>
</svg>
