<svg xmlns="http://www.w3.org/2000/svg" width="740.675" height="597.176" viewBox="0 0 740.675 597.176">
  <g id="undraw_savings_re_eq4w" transform="translate(0 0)">
    <path id="Path_29961" data-name="Path 29961" d="M754.336,592.612c11.488-.319,25.786-.718,36.8-8.764a28.262,28.262,0,0,0,11.12-21.1c.225-6.355-2.071-11.9-6.465-15.614-5.753-4.861-14.154-6-23.207-3.341l9.38-68.548-6.886-.943C776.468,549.189,767.068,585.3,754.336,592.612Z" transform="translate(-229.662 -151.412)" fill="#fff"/>
    <path id="Path_29960" data-name="Path 29960" d="M653.23,748.12a25.374,25.374,0,0,1-25.44-25.25V704.619c-19.109,2.139-84.543,1.644-103.3-1.37v18.892a25.441,25.441,0,1,1-50.881,0V685.049a163.307,163.307,0,0,1-84-142.388c0-49.83,22.583-96.315,61.959-127.534a164.075,164.075,0,0,1,89.323-35.173c4.427-.347,8.881-.523,13.239-.523,15.352,0,84.619,2.372,102,7.372l39.628-39.322a4.16,4.16,0,0,1,4.55-.907,4.1,4.1,0,0,1,2.584,3.847v6.252l7.716-7.642a4.15,4.15,0,0,1,4.546-.908,4.1,4.1,0,0,1,2.587,3.848v69.865A162.759,162.759,0,0,1,678.67,689.7c-.029,19.713-.135,34.523-3.589,43.783C670.53,745.688,661.373,748.141,653.23,748.12Z" transform="translate(-229.662 -151.412)" fill="#fff"/>
    <path id="Path_29939" data-name="Path 29939" d="M651.612,679.719c-5.122-7.172-12.055-12.419-20.771-14.383-7.6-1.713-15.416-1.421-23.142-1.361l-97.692.753c-8.367.065-16.389,7.313-16,16,.386,8.614,7.032,16.069,16,16l85.851-.662c6.747-.052,13.5-.174,20.244-.152,1.515,0,3.024.085,4.538.1.367,0,.631,0,.818-.007.047.014.086.027.147.044.79.217,1.6.366,2.394.572-.278.008.515.5.914.671.055.108.171.3.366.6.272.51,1.077,2.059,1.11,2.01a71.763,71.763,0,0,1,2.987,9.393c1.859,7.047,2.268,8.52,2.536,15.132.338,8.352,7.117,16.4,16,16,8.379-.375,16.363-7.042,16-16C663.3,709.333,660.651,692.377,651.612,679.719Z" transform="translate(-229.662 -151.412)" fill="#e6e6e6"/>
    <path id="Path_29940" data-name="Path 29940" d="M515.749,715.825c-1.835-11.12-3.635-22.246-5.505-33.359-1.9-11.274-5.774-21.6-14.548-29-2.344-1.977-4.775-3.823-7.216-5.663-.858-.647-1.715-1.295-2.563-1.956l-.127-.1-.355-.3c-3.657-3.095-7.19-6.327-10.556-9.763q-4.483-4.577-8.575-9.545-1.022-1.241-2.019-2.5c-.114-.145-.729-.94-1.135-1.459-.377-.519-1.066-1.457-1.182-1.621q-1.164-1.646-2.286-3.322A156.126,156.126,0,0,1,446.5,593.119q-.547-1.251-1.068-2.517c-.093-.258-.214-.588-.374-1.029-.741-2.038-1.481-4.074-2.159-6.137q-2.16-6.571-3.714-13.336-.768-3.34-1.383-6.715-.317-1.735-.593-3.478c-.03-.193-.21-1.446-.316-2.154-.078-.712-.224-1.972-.243-2.166q-.176-1.756-.312-3.516-.307-3.96-.415-7.933-.185-7.061.253-14.122c.166-2.645.4-5.282.693-7.915.018-.162.031-.29.044-.406s.038-.251.063-.417c.215-1.455.442-2.908.7-4.356a159.286,159.286,0,0,1,3.739-16.313q1.088-3.809,2.363-7.555.568-1.663,1.173-3.314c-.026.071,1.182-3.016,1.2-3.119,4.795-11.329,12.638-21.657,12.648-34.526.007-8.713-7.364-17.06-16-16.657a16.625,16.625,0,0,0-16,16.657c0,.2,0,.363,0,.525-.081.271-.148.5-.208.7-.935,2.032-2.081,3.963-3.107,5.944-2.811,5.423-5.209,11.025-7.488,16.708a159.827,159.827,0,0,0-8.529,28.628,182.1,182.1,0,0,0-.968,65.04c6.2,37.813,26.662,74.009,55.1,98.339,2.468,2.111,5,4.152,7.549,6.151,1.056.827,2.121,1.639,3.191,2.446.506.381,2.6,2.034,1.68,1.233,1.982,1.692,2.817,2.543,3.326,3.789.074.288.174.678.311,1.211.359,1.405.7,2.807.983,4.233,2.476,12.451,4.2,25.112,6.264,37.644,1.421,8.611,12.022,14.215,19.682,11.634C513.49,733.312,517.272,725.051,515.749,715.825Z" transform="translate(-229.662 -151.412)" fill="#e6e6e6"/>
    <path id="Path_29941" data-name="Path 29941" d="M653.23,748.12a25.374,25.374,0,0,1-25.44-25.25V704.619c-19.109,2.139-84.543,1.644-103.3-1.37v18.892a25.441,25.441,0,1,1-50.881,0V685.049a163.307,163.307,0,0,1-84-142.388c0-49.83,22.583-96.315,61.959-127.534a164.075,164.075,0,0,1,89.323-35.173c4.427-.347,8.881-.523,13.239-.523,15.352,0,84.619,2.372,102,7.372l39.628-39.322a4.16,4.16,0,0,1,4.55-.907,4.1,4.1,0,0,1,2.584,3.847v6.252l7.716-7.642a4.15,4.15,0,0,1,4.546-.908,4.1,4.1,0,0,1,2.587,3.848v69.865A162.759,162.759,0,0,1,678.67,689.7V722.87A25.374,25.374,0,0,1,653.23,748.12Zm-23.44-45.769V722.87a23.44,23.44,0,1,0,46.881,0V688.438l.571-.271a162.455,162.455,0,0,0,66.531-58.182,160.325,160.325,0,0,0-27.7-206.96l-.332-.3V351.97a2.1,2.1,0,0,0-1.342-2,2.149,2.149,0,0,0-2.381.473L700.89,361.468V350.42a2.1,2.1,0,0,0-1.342-2,2.154,2.154,0,0,0-2.385.477l-40.476,40.164-.575-.18c-16.156-5.057-86.513-7.454-101.982-7.454-4.306,0-8.707.174-13.081.517a162.075,162.075,0,0,0-88.237,34.746c-38.895,30.838-61.2,76.751-61.2,125.967a161.315,161.315,0,0,0,83.485,140.925l.516.286V722.14a23.441,23.441,0,1,0,46.881,0V700.854l1.185.223c16.856,3.171,87.832,3.671,104.985,1.421Z" transform="translate(-229.662 -151.412)" fill="#3f3d56"/>
    <path id="Path_29942" data-name="Path 29942" d="M517.66,270.53,406.92,303.81a13.882,13.882,0,1,0,7.99,26.59l96.91-29.13,2.03-.61a67.516,67.516,0,0,1,8.29-29.86,6.165,6.165,0,0,0-2-.52,6.367,6.367,0,0,0-2.48.25Z" transform="translate(-229.662 -151.412)" fill="#f99c4f"/>
    <path id="Path_29943" data-name="Path 29943" d="M412.995,337.495a7.013,7.013,0,0,1-6.638-4.8l-6.925-20.9a7,7,0,0,1,4.443-8.847l90.131-29.87a7,7,0,0,1,8.847,4.442l6.925,20.9a6.976,6.976,0,0,1-4.193,8.759q-.125.047-.252.088L415.2,337.136a7,7,0,0,1-2.209.359Z" transform="translate(-229.662 -151.412)" fill="#2f2e41"/>
    <path id="Path_29944" data-name="Path 29944" d="M581.79,233.42a70.031,70.031,0,0,0-69.97,67.85c-.02.71-.03,1.43-.03,2.15a70,70,0,1,0,70-70Zm0,138a68.071,68.071,0,0,1-68-68q0-1.395.06-2.76a68,68,0,1,1,67.94,70.76Z" transform="translate(-229.662 -151.412)" fill="#3f3d56"/>
    <path id="Path_29945" data-name="Path 29945" d="M640.79,303.42a59,59,0,0,1-118,0c0-1.87.09-3.71.26-5.53a59,59,0,0,1,117.74,5.53Z" transform="translate(-229.662 -151.412)" fill="#e6e6e6"/>
    <path id="Path_29946" data-name="Path 29946" d="M599.36,307.34a14.047,14.047,0,0,0-5.47-4.33,53.143,53.143,0,0,0-8.22-2.7V284.25a23.4,23.4,0,0,1,11.69,5.33l3.26-6.95a21.561,21.561,0,0,0-6.36-3.93,31.259,31.259,0,0,0-8.07-2.07v-8.14h-7.55v8.22a20.672,20.672,0,0,0-8.25,2.77,16.4,16.4,0,0,0-5.59,5.48,13.771,13.771,0,0,0-1.99,7.29,12.462,12.462,0,0,0,2.29,7.8,14.51,14.51,0,0,0,5.7,4.52,52.691,52.691,0,0,0,8.36,2.77v15.39a24.988,24.988,0,0,1-13.91-5.55l-3.26,6.96a24.581,24.581,0,0,0,7.44,4.22,34.162,34.162,0,0,0,9.21,1.92v8.07h7.55v-8.22a19.538,19.538,0,0,0,11.21-5.14,13.59,13.59,0,0,0,4.18-10.1,12.055,12.055,0,0,0-2.22-7.55Zm-20.2-8.73a14.5,14.5,0,0,1-5.03-2.7,5.321,5.321,0,0,1-1.78-4.18,6.726,6.726,0,0,1,1.82-4.81,9.2,9.2,0,0,1,4.99-2.59Zm11.25,21.28a8.557,8.557,0,0,1-4.74,2.47V309.12a13.239,13.239,0,0,1,4.74,2.37,4.658,4.658,0,0,1,1.63,3.7,6.8,6.8,0,0,1-1.63,4.7Z" transform="translate(-229.662 -151.412)" fill="#f99c4f"/>
    <path id="Path_29947" data-name="Path 29947" d="M416.209,422.184a7.023,7.023,0,0,1-6.775-5.216l-3.77-14.27a7,7,0,0,1,4.975-8.551l118.941-31.43a7.015,7.015,0,0,1,8.551,4.985l3.194,12.09-.6.046a160.163,160.163,0,0,0-84.107,31.871l-.173.084-38.46,10.16A6.963,6.963,0,0,1,416.209,422.184Z" transform="translate(-229.662 -151.412)" fill="#2f2e41"/>
    <path id="Path_29948" data-name="Path 29948" d="M396.51,492.671a98.108,98.108,0,0,1-39.122-14.792,95.532,95.532,0,0,1-16.174-13.229c-4.828-4.924-9.447-10.521-11.838-17.079a25.3,25.3,0,0,1,.331-18.769,24.334,24.334,0,0,1,13.169-13.125c5.99-2.389,13.226-2.644,19.055-.028a17.089,17.089,0,0,1,6.964,5.606,11.435,11.435,0,0,1,1.81,3.758,7.673,7.673,0,0,1,.09,3.759,9.016,9.016,0,0,1-4.774,5.723,24.068,24.068,0,0,1-8.152,2.486c-2.86.39-6.969.745-9.268-1.551a4.669,4.669,0,0,1-1.093-1.611,3.114,3.114,0,0,1-.172-1.458c-.034.217.139-.472.129-.445-.036.1-.194.35.03-.031a3.388,3.388,0,0,1,.233-.363c-.076.1-.243.262.055-.019a1.962,1.962,0,0,1,.914-.564c.138-.04.279-.072.418-.11.353-.1-.352.005.009-.006.139,0,.28,0,.419-.007.354-.016-.349-.1-.01-.011.132.033.262.065.392.106.282.089-.2-.207-.009.014.224.259-.235-.252.019,0a4.627,4.627,0,0,1,.358.394,2.359,2.359,0,0,0,3.315,0,2.4,2.4,0,0,0,0-3.315c-2.311-2.865-6.877-2.157-9.215.264-2.982,3.088-1.8,7.983,1.1,10.678,3.284,3.051,7.934,3.263,12.158,2.751a29.817,29.817,0,0,0,10.269-2.9,14.4,14.4,0,0,0,7.024-7.588,13.174,13.174,0,0,0-1.056-10.769c-3.729-7.011-11.452-10.606-19.084-11.228a29.812,29.812,0,0,0-21.819,7.163,30.154,30.154,0,0,0-9.888,20.075c-.666,8,2.436,15.761,6.959,22.214a84.628,84.628,0,0,0,16.779,17.353A102.472,102.472,0,0,0,389.649,496.2q2.792.577,5.615.988a2.421,2.421,0,0,0,2.883-1.637,2.361,2.361,0,0,0-1.637-2.883Z" transform="translate(-229.662 -151.412)" fill="#3f3d56"/>
    <path id="Path_29949" data-name="Path 29949" d="M619.9,390.794q-30.663-.433-61.133,1.556c-6.943.453-12.951,2.907-12.951,7.032,0,3.449,5.96,7.489,12.951,7.032q30.454-1.989,61.133-1.556C636.569,405.094,636.56,391.029,619.9,390.794Z" transform="translate(-229.662 -151.412)" fill="#ccc"/>
    <path id="Path_29950" data-name="Path 29950" d="M589.682,404.162c-2.209,0-54.106-.083-54.106-7.251s51.9-7.25,54.106-7.25,54.106.083,54.106,7.25S591.891,404.162,589.682,404.162Zm-52.076-7.251c1.42,2.173,20.5,5.251,52.076,5.251s50.656-3.078,52.076-5.251c-1.42-2.173-20.5-5.25-52.076-5.25s-50.657,3.078-52.077,5.251Z" transform="translate(-229.662 -151.412)" fill="#3f3d56"/>
    <path id="Path_29951" data-name="Path 29951" d="M754.336,592.612c11.488-.319,25.786-.718,36.8-8.764a28.262,28.262,0,0,0,11.12-21.1c.225-6.355-2.071-11.9-6.465-15.614-5.753-4.861-14.154-6-23.207-3.341l9.38-68.548-6.886-.943-11.028,80.587,5.75-2.639c6.666-3.058,15.817-4.614,21.5.192a12.216,12.216,0,0,1,4.006,10.062,21.361,21.361,0,0,1-8.275,15.735c-8.572,6.261-19.969,7.069-32.894,7.43Z" transform="translate(-229.662 -151.412)" fill="#3f3d56"/>
    <rect id="Rectangle_397" data-name="Rectangle 397" width="37.432" height="6.95" transform="translate(468.203 329.741)" fill="#3f3d56"/>
    <path id="Path_29952" data-name="Path 29952" d="M433.148,454.15a7.012,7.012,0,0,1-6.9-5.917l-2.285-14.582a7.008,7.008,0,0,1,5.832-8l121.531-19.042a7.007,7.007,0,0,1,8,5.832l2.285,14.582a7.007,7.007,0,0,1-5.832,8L434.242,454.065a7.1,7.1,0,0,1-1.094.085Z" transform="translate(-229.662 -151.412)" fill="#2f2e41"/>
    <circle id="Ellipse_2131" data-name="Ellipse 2131" cx="51" cy="51" r="51" transform="translate(102.189 29.855)" fill="#f99c4f"/>
    <path id="Path_29953" data-name="Path 29953" d="M411.727,245.463a12.1,12.1,0,0,0,4.367-2.676,8.134,8.134,0,0,0,2.255-6.483,5.472,5.472,0,0,0-2.512-4.164c-1.846-1.135-4.285-1.092-6.747.049l-.284-19.908-2,.028.334,23.4,1.522-1c1.765-1.156,4.3-1.994,6.127-.872a3.514,3.514,0,0,1,1.573,2.69,6.146,6.146,0,0,1-1.676,4.834c-2.168,2.151-5.377,2.872-9.039,3.531l.354,1.968a32.963,32.963,0,0,0,5.727-1.4Z" transform="translate(-229.662 -151.412)" fill="#2f2e41"/>
    <rect id="Rectangle_398" data-name="Rectangle 398" width="10.772" height="2" transform="matrix(0.989, -0.15, 0.15, 0.989, 189.089, 61.083)" fill="#2f2e41"/>
    <rect id="Rectangle_399" data-name="Rectangle 399" width="10.772" height="2" transform="matrix(0.989, -0.15, 0.15, 0.989, 155.472, 66.174)" fill="#2f2e41"/>
    <path id="Path_29954" data-name="Path 29954" d="M416.555,453.258a9.03,9.03,0,0,1-8.434-5.855l-35.164-94.169a46.532,46.532,0,0,1,27.284-59.8l28.592-10.676a8.957,8.957,0,0,1,6.878.239,8.832,8.832,0,0,1,4.675,4.986l65.137,122.983a9,9,0,0,1-5.257,11.638L419.7,452.687a8.974,8.974,0,0,1-3.145.571Z" transform="translate(-229.662 -151.412)" fill="#2f2e41"/>
    <path id="Path_29955" data-name="Path 29955" d="M420.158,285.995l64.629,86.426L441.056,286.9a8.079,8.079,0,0,0-10.349-4.846Z" transform="translate(-229.662 -151.412)" fill="#e6e6e6"/>
    <path id="Path_29956" data-name="Path 29956" d="M522.49,351.63,407.1,344.2a13.879,13.879,0,1,1,1.784-27.7l115.395,7.433a6.5,6.5,0,0,1,6.069,6.9l-.948,14.729a6.5,6.5,0,0,1-6.9,6.069Z" transform="translate(-229.662 -151.412)" fill="#f99c4f"/>
    <path id="Path_29957" data-name="Path 29957" d="M491.655,356.395q-.229,0-.458-.015h0l-94.756-6.1a7,7,0,0,1-6.536-7.435l1.62-25.158a7,7,0,0,1,7.436-6.535l94.756,6.1a7.008,7.008,0,0,1,6.535,7.435l-1.62,25.159a7.019,7.019,0,0,1-4.546,6.111,6.927,6.927,0,0,1-2.431.439Z" transform="translate(-229.662 -151.412)" fill="#2f2e41"/>
    <path id="Path_29958" data-name="Path 29958" d="M382.267,198.353c6.709-5.77,15.923-.608,23.617-1.512,7.361-.865,13.174-7.468,14.659-14.482,1.732-8.184-2.516-16.383-8.777-21.486-6.857-5.589-15.952-7.193-24.57-6.159-9.878,1.185-18.911,5.789-27.017,11.359a121.849,121.849,0,0,0-21.442,18.169c-5.751,6.352-10.624,13.923-12.18,22.47-1.414,7.768-.334,16.375,4.258,22.955a24.205,24.205,0,0,0,9.474,7.805c3.937,1.933,8.138,3.316,11.952,5.5,5.768,3.305,11.374,10.159,9.567,17.291a9.793,9.793,0,0,1-2.226,4.19c-1.291,1.433-3.619-.461-2.325-1.9,2.273-2.523,2.183-5.888.972-8.9A16.272,16.272,0,0,0,351,245.7c-3.993-2.283-8.4-3.692-12.494-5.772a27.023,27.023,0,0,1-9.911-8.214c-4.9-6.807-6.363-15.666-5.253-23.861,1.2-8.868,5.759-16.927,11.471-23.68,6.216-7.349,13.852-13.57,21.652-19.159,8.37-6,17.617-11.067,27.85-12.9,8.87-1.59,18.485-.611,26.241,4.223,7.24,4.512,12.792,12.274,13.345,20.947a22.235,22.235,0,0,1-10.376,19.942,19.1,19.1,0,0,1-11.41,2.643c-4.262-.273-8.527-1.578-12.816-1.215a8.941,8.941,0,0,0-5.268,2.128c-1.466,1.261-3.213-1.181-1.759-2.431Z" transform="translate(-229.662 -151.412)" fill="#2f2e41"/>
    <path id="Path_29959" data-name="Path 29959" d="M969.147,748.588H230.853a1.191,1.191,0,1,1,0-2.381H969.147a1.191,1.191,0,0,1,0,2.381Z" transform="translate(-229.662 -151.412)" fill="#3f3d56"/>
  </g>
</svg>
