<svg width="1023" height="690" viewBox="0 0 1023 690" fill="none" xmlns="http://www.w3.org/2000/svg">
<g clip-path="url(#clip0)">
<path opacity="0.1" d="M599.954 116.607C535.224 114.697 473.564 96.9713 414.695 77.5737C355.826 58.176 297.517 36.6824 234.337 26.4066C193.7 19.7965 147.223 18.8631 114.488 37.3443C82.973 55.1637 72.7914 85.8385 67.3205 114.332C63.1999 135.767 60.7795 158.321 72.0713 178.389C79.9025 192.322 93.8147 204.032 103.426 217.422C136.901 263.854 113.248 321.114 76.972 366.451C59.9694 387.724 40.2163 408.03 27.0942 430.652C13.9722 453.274 7.89122 479.231 19.373 502.328C30.7648 525.239 57.899 542.413 87.2836 554.505C146.983 579.07 217.304 586.096 285.925 590.076C437.778 598.892 590.432 595.074 742.686 591.255C799.035 589.838 855.624 588.404 911.052 581.013C941.837 576.906 973.612 570.398 995.966 554.666C1024.33 534.7 1031.36 500.886 1012.36 475.854C980.463 433.859 892.34 423.431 870.016 378.356C857.754 353.553 870.356 325.925 888.179 302.912C926.425 253.561 990.525 210.26 993.905 153.849C996.226 115.096 965.401 76.3009 917.753 57.9639C867.816 38.6765 798.545 41.1203 761.719 72.9321C723.773 105.711 657.103 118.287 599.954 116.607Z" fill="#145DA0"/>
<path d="M435.518 585.918L93.1846 584.501L59.1693 516.813L179.448 509.405L158.485 435.191L396.382 409.031L168.576 341.843L188.7 337.787L555.007 388.488L534.834 504.305L505.999 567.954L435.518 585.918Z" fill="#145DA0"/>
<path d="M98.4354 556.151C98.4354 556.151 119.439 553.3 132.041 565.892C132.041 565.892 122.799 572.07 102.916 563.516L98.4354 556.151Z" fill="#145DA0"/>
<path d="M96.235 555.871C96.235 555.871 82.8329 569.863 89.434 585.443C89.434 585.443 100.356 581.735 101.546 562.846L96.235 555.871Z" fill="#145DA0"/>
<path d="M84.1932 532.867C84.1932 532.867 92.5945 519.791 126.2 538.094C126.2 538.094 121.719 546.885 106.877 546.172C92.0344 545.46 88.1138 539.757 84.1932 532.867Z" fill="#145DA0"/>
<path d="M82.0228 531.925C82.0228 531.925 64.5901 530.228 62.8998 564.085C62.8998 564.085 73.9516 566.028 81.8028 555.32C89.654 544.611 86.4335 538.603 82.0228 531.925Z" fill="#145DA0"/>
<path d="M71.8712 504.916C71.8712 504.916 81.6727 481.87 117.238 498.264C117.238 498.264 109.117 519.409 75.5118 512.757L71.8712 504.916Z" fill="#145DA0"/>
<path d="M60.9495 470.465C60.9495 470.465 79.4324 447.181 112.198 468.768C112.198 468.768 100.716 490.627 63.75 478.747L60.9495 470.465Z" fill="#145DA0"/>
<path d="M57.0289 437.678C57.0289 437.678 78.5923 416.286 111.037 437.678C111.037 437.678 90.5942 456.447 57.0289 443.142V437.678Z" fill="#145DA0"/>
<path d="M53.6684 405.832C53.6684 405.832 75.5118 383.498 106.597 404.644C106.597 404.644 81.9528 424.364 53.6684 411.059V405.832Z" fill="#145DA0"/>
<path d="M55.6287 377.559C55.6287 377.559 78.6323 348.81 107.717 368.292C107.717 368.292 83.073 393.002 55.6287 383.023V377.559Z" fill="#145DA0"/>
<path d="M60.9495 344.533C60.9495 344.533 85.3133 316.022 113.598 337.881C113.598 337.881 84.7532 362.59 60.9495 349.76V344.533Z" fill="#145DA0"/>
<path d="M69.0708 315.013C69.0708 315.013 97.9153 288.216 123.079 298.89C123.079 298.89 93.0245 327.35 67.8106 322.123L69.0708 315.013Z" fill="#145DA0"/>
<path d="M79.1524 287.028C79.1524 287.028 112.438 254.206 131.801 265.169C131.801 265.169 107.277 290.625 76.792 293.171L79.1524 287.028Z" fill="#145DA0"/>
<path d="M93.7047 254.571C93.7047 254.571 122.839 227.774 144.123 234.427C144.123 234.427 119.199 262.225 89.7941 262.938L93.7047 254.571Z" fill="#145DA0"/>
<path d="M106.877 224.21C106.877 224.21 139.082 198.55 153.084 203.064C153.084 203.064 129.84 231.575 105.477 229.912L106.877 224.21Z" fill="#145DA0"/>
<path d="M119.759 196.174C119.759 196.174 147.483 165.517 162.615 167.892C162.615 167.892 145.803 195.224 119.759 199.288V196.174Z" fill="#145DA0"/>
<path d="M133.741 158.372C133.741 158.372 158.245 134.876 171.487 134.927C171.487 134.927 152.144 166.323 132.731 166.034L133.741 158.372Z" fill="#145DA0"/>
<path d="M142.022 133.204L165.696 84.2602C165.696 84.2602 166.876 128.503 139.012 142.283L142.022 133.204Z" fill="#145DA0"/>
<path d="M151.634 79.2283C151.634 79.2283 155.554 38.3541 153.034 35.0278C153.034 35.0278 169.957 69.0119 151.474 97.2853L151.634 79.2283Z" fill="#145DA0"/>
<path d="M70.9511 504.373C70.9511 504.373 46.4073 491.467 30.5148 523.041C30.5148 523.041 52.3582 535.345 73.8415 512.426L70.9511 504.373Z" fill="#145DA0"/>
<path d="M60.1594 469.15C60.1594 469.15 30.0547 457.5 15.4524 490.466C15.4524 490.466 38.706 504.042 62.8998 477.483L60.1594 469.15Z" fill="#145DA0"/>
<path d="M55.6287 439.638C55.6287 439.638 34.0653 418.246 1.62024 439.638C1.62024 439.638 22.0634 458.408 55.6287 445.102V439.638Z" fill="#145DA0"/>
<path d="M52.9283 405.832C52.9283 405.832 31.0849 383.498 0 404.644C0 404.644 24.6439 424.364 52.9283 411.059V405.832Z" fill="#145DA0"/>
<path d="M55.6287 378.373C55.6287 378.373 40.3063 346.171 7.0011 360.019C7.0011 360.019 25.0039 388.573 54.2685 383.719L55.6287 378.373Z" fill="#145DA0"/>
<path d="M62.8799 344.372C62.8799 344.372 47.6475 311.61 13.8722 326.799C13.8722 326.799 34.5554 356.829 61.3796 349.429L62.8799 344.372Z" fill="#145DA0"/>
<path d="M72.3213 315.174C72.3213 315.174 66.3204 279.255 38.316 276.039C38.316 276.039 44.2569 313.918 68.5507 321.648L72.3213 315.174Z" fill="#145DA0"/>
<path d="M79.8625 287.096C79.8625 287.096 77.5222 243.82 54.3685 242.31C54.3685 242.31 55.1487 275.157 77.2521 293.222L79.8625 287.096Z" fill="#145DA0"/>
<path d="M96.105 253.358C96.105 253.358 89.2039 217.371 67.1005 212.975C67.1005 212.975 69.8409 247.825 93.9147 262.191L96.105 253.358Z" fill="#145DA0"/>
<path d="M109.497 224.507C109.497 224.507 109.267 187.019 95.765 181.512C95.765 181.512 87.3936 215.453 105.587 229.293L109.497 224.507Z" fill="#145DA0"/>
<path d="M120.789 195.75C120.789 195.75 118.899 157.15 104.916 151.711C104.916 151.711 100.136 182.258 118.699 198.279L120.789 195.75Z" fill="#145DA0"/>
<path d="M135.691 161.452C135.691 161.452 135.611 130.056 125.63 122.691C125.63 122.691 115.708 157.082 130.48 167.765L135.691 161.452Z" fill="#145DA0"/>
<path d="M140.852 131.66L131.14 79.4065C131.14 79.4065 117.948 122.224 141.312 141.095L140.852 131.66Z" fill="#145DA0"/>
<path d="M142.742 79.7205C142.742 79.7205 117.818 44.5909 118.329 40.6876C118.329 40.6876 120.979 77.5058 152.334 95.8428L142.742 79.7205Z" fill="#145DA0"/>
<path d="M145.663 69.3428C145.663 69.3428 122.139 19.4486 111.497 15.4095C111.497 15.4095 145.103 29.9026 147.623 67.9173L145.663 69.3428Z" fill="#145DA0"/>
<path d="M132.611 166.331L131 165.915C150.854 110.989 155.804 75.9699 144.953 67.1875L146.103 66.1523C157.615 75.4184 152.944 110.056 132.611 166.331Z" fill="#444053"/>
<path d="M77.9422 294.936L75.5618 294.215C77.6722 289.183 79.9425 284.075 82.3229 279.043C103.046 235.224 120.689 194.46 132.001 163.166L134.071 162.318C122.739 193.671 105.406 235.996 84.6632 279.874C82.2929 284.813 80.0325 289.896 77.9422 294.936Z" fill="#444053"/>
<path d="M128.03 597.254C127.71 596.957 95.535 566.215 73.1015 513.732C59.9568 483.006 52.6414 450.705 51.4281 418.034C49.8878 377.194 59.9894 331.593 77.2921 290.167L79.1724 292.034C40.3263 385.009 55.7587 464.678 76.2319 512.655C98.4254 564.662 130.24 595.065 130.55 595.371L128.03 597.254Z" fill="#444053"/>
<path d="M630.829 531.985C630.829 531.985 608.155 555.464 626.158 590.958L445.13 657.569L427.757 660.657L419.756 630.958L425.106 593.478V572.995L630.829 531.985Z" fill="#D5D6DB"/>
<path d="M59.1693 516.813L309.728 478.06L641.73 522.931L435.518 585.918L59.1693 516.813Z" fill="#145DA0"/>
<path d="M59.1693 516.813L309.728 478.06L641.73 522.931L435.518 585.918L59.1693 516.813Z" fill="#145DA0"/>
<path d="M59.1692 516.804C59.1692 516.804 35.7356 554.471 62.7398 589.261L434.298 657.569C434.298 657.569 411.234 627.564 435.488 585.918L59.1692 516.804Z" fill="#145DA0"/>
<path opacity="0.1" d="M59.1692 516.804C59.1692 516.804 35.7356 554.471 62.7398 589.261L434.298 657.569C434.298 657.569 411.234 627.564 435.488 585.918L59.1692 516.804Z" fill="black"/>
<path opacity="0.1" d="M70.241 529.863C70.241 529.863 56.8489 557.424 70.241 575.26Z" fill="black"/>
<path d="M434.298 657.569L641.73 582.473C641.73 582.473 653.332 584.594 645.831 591.807C638.33 599.019 438.299 664.781 438.299 664.781L62.7398 589.261L434.298 657.569Z" fill="#145DA0"/>
<path opacity="0.1" d="M434.298 657.569L641.73 582.473C641.73 582.473 653.332 584.594 645.831 591.807C638.33 599.019 438.299 664.781 438.299 664.781L62.7398 589.261L434.298 657.569Z" fill="black"/>
<path opacity="0.1" d="M417.295 593.504C417.295 593.504 397.292 613.869 417.295 644.416Z" fill="black"/>
<path opacity="0.1" d="M514.138 593.16L424.414 618.556L424.731 619.361L514.454 593.964L514.138 593.16Z" fill="black"/>
<path opacity="0.1" d="M532.109 590.632L424.386 625.386L424.742 626.179L532.464 591.425L532.109 590.632Z" fill="black"/>
<path opacity="0.1" d="M548.613 590.511L424.987 633.442L425.366 634.227L548.992 591.296L548.613 590.511Z" fill="black"/>
<path opacity="0.1" d="M566.56 586.834L426.43 640.539L426.842 641.312L566.972 587.608L566.56 586.834Z" fill="black"/>
<path opacity="0.1" d="M581.638 586.852L427.54 643.997L427.94 644.775L582.039 587.629L581.638 586.852Z" fill="black"/>
<path opacity="0.1" d="M614.619 582.1L429.863 649.801L430.26 650.58L615.015 582.879L614.619 582.1Z" fill="black"/>
<path opacity="0.3" d="M152.254 520.954L328.281 489.557L435.518 506.953L291.276 546.41L152.254 520.954Z" fill="white"/>
<path d="M641.73 522.931C641.73 522.931 650.832 526.045 645.491 530.856C640.15 535.667 435.488 585.918 435.488 585.918L641.73 522.931Z" fill="#145DA0"/>
<path d="M730.134 450.372C730.134 450.372 707.471 473.843 725.473 509.346L544.445 575.956L527.072 579.062L519.071 549.363L524.502 511.891V491.382L730.134 450.372Z" fill="#D5D6DB"/>
<path d="M158.485 435.192L409.034 396.447L741.046 441.318L534.834 504.305L158.485 435.192Z" fill="#3A3768"/>
<path d="M158.445 435.191C158.445 435.191 135.001 472.858 162.005 507.648L533.563 575.956C533.563 575.956 510.51 545.926 534.794 504.297L158.445 435.191Z" fill="#3A3768"/>
<path opacity="0.1" d="M158.445 435.191C158.445 435.191 135.001 472.858 162.005 507.648L533.563 575.956C533.563 575.956 510.51 545.926 534.794 504.297L417.295 482.718L158.445 435.191Z" fill="black"/>
<path opacity="0.1" d="M169.546 448.251C169.546 448.251 156.164 475.803 169.546 493.648Z" fill="black"/>
<path d="M533.603 575.956L741.046 500.86C741.046 500.86 752.638 502.981 745.137 510.194C737.635 517.407 537.604 583.169 537.604 583.169L162.045 507.648L533.603 575.956Z" fill="#3A3768"/>
<path opacity="0.1" d="M533.603 575.956L741.046 500.86C741.046 500.86 752.638 502.981 745.137 510.194C737.635 517.407 537.604 583.169 537.604 583.169L162.045 507.648L533.603 575.956Z" fill="black"/>
<path opacity="0.1" d="M516.601 511.891C516.601 511.891 496.598 532.256 516.601 562.804Z" fill="black"/>
<path opacity="0.1" d="M613.451 511.556L523.728 536.952L524.044 537.757L613.767 512.361L613.451 511.556Z" fill="black"/>
<path opacity="0.1" d="M631.434 509.025L523.712 543.778L524.067 544.571L631.79 509.818L631.434 509.025Z" fill="black"/>
<path opacity="0.1" d="M647.924 508.891L524.298 551.822L524.677 552.607L648.303 509.676L647.924 508.891Z" fill="black"/>
<path opacity="0.1" d="M665.883 505.216L525.753 558.921L526.165 559.694L666.295 505.99L665.883 505.216Z" fill="black"/>
<path opacity="0.1" d="M680.947 505.223L526.848 562.369L527.249 563.146L681.347 506.001L680.947 505.223Z" fill="black"/>
<path opacity="0.1" d="M713.935 500.471L529.179 568.172L529.576 568.951L714.331 501.25L713.935 500.471Z" fill="black"/>
<path opacity="0.45" d="M251.569 439.341L427.597 407.945L534.834 425.34L390.591 464.797L251.569 439.341Z" fill="white"/>
<path d="M741.046 441.318C741.046 441.318 750.137 444.432 744.807 449.235C739.476 454.038 534.834 504.297 534.834 504.297L741.046 441.318Z" fill="#3A3768"/>
<path d="M739.536 357.007C739.536 357.007 716.862 399.154 734.865 434.648L553.837 482.591L536.504 485.705L528.503 456.006L533.853 418.526V398.017L739.536 357.007Z" fill="#D5D6DB"/>
<path d="M167.916 341.835L418.475 303.082L750.487 347.953L544.265 410.94L167.916 341.835Z" fill="#145DA0"/>
<path d="M167.916 341.826C167.916 341.826 144.443 379.493 171.447 414.283L543.005 482.591C543.005 482.591 519.941 452.561 544.225 410.94L167.916 341.826Z" fill="#145DA0"/>
<path opacity="0.1" d="M167.916 341.826C167.916 341.826 144.443 379.493 171.447 414.283L543.005 482.591C543.005 482.591 519.941 452.561 544.225 410.94L167.916 341.826Z" fill="black"/>
<path opacity="0.1" d="M178.988 354.885C178.988 354.885 165.596 382.446 178.988 400.282Z" fill="black"/>
<path d="M543.045 482.591L750.477 426.163C750.477 426.163 762.079 428.284 754.578 435.497C747.077 442.71 547.046 489.804 547.046 489.804L171.487 414.283L543.045 482.591Z" fill="#145DA0"/>
<path opacity="0.1" d="M543.045 482.591L750.477 426.163C750.477 426.163 762.079 428.284 754.578 435.497C747.077 442.71 547.046 489.804 547.046 489.804L171.487 414.283L543.045 482.591Z" fill="black"/>
<path opacity="0.1" d="M526.042 418.526C526.042 418.526 506.039 438.891 526.042 469.439Z" fill="black"/>
<path opacity="0.1" d="M622.895 418.189L533.172 443.585L533.489 444.39L623.212 418.994L622.895 418.189Z" fill="black"/>
<path opacity="0.1" d="M640.872 415.662L533.149 450.416L533.505 451.209L641.227 416.455L640.872 415.662Z" fill="black"/>
<path opacity="0.1" d="M657.352 415.533L533.727 458.464L534.106 459.249L657.731 416.318L657.352 415.533Z" fill="black"/>
<path opacity="0.1" d="M675.325 411.851L535.195 465.555L535.607 466.329L675.737 412.624L675.325 411.851Z" fill="black"/>
<path opacity="0.1" d="M690.394 411.865L536.295 469.011L536.696 469.788L690.794 412.643L690.394 411.865Z" fill="black"/>
<path opacity="0.1" d="M723.379 407.119L538.623 474.82L539.02 475.599L723.775 407.898L723.379 407.119Z" fill="black"/>
<path opacity="0.3" d="M261.001 345.976L437.028 314.58L544.265 331.975L400.023 371.432L261.001 345.976Z" fill="white"/>
<path d="M750.477 347.953C750.477 347.953 759.579 351.067 754.238 355.878C748.897 360.69 544.265 410.94 544.265 410.94L750.477 347.953Z" fill="#145DA0"/>
<path d="M310.469 90.3697C310.469 90.3697 272.463 88.4265 276.903 111.049C276.903 111.049 276.013 115.045 280.284 116.861C280.284 116.861 280.354 115.164 284.184 115.75C285.551 115.949 286.942 116.006 288.325 115.919C290.19 115.811 291.962 115.192 293.376 114.154V114.154C293.376 114.154 304.068 110.404 308.228 95.5712C308.228 95.5712 311.309 92.3383 311.229 91.5067L304.788 93.8317C304.788 93.8317 306.978 97.7605 305.258 101.027C305.258 101.027 305.048 93.976 303.808 94.1372C303.557 94.1372 300.477 95.5034 300.477 95.5034C300.477 95.5034 304.248 102.351 301.397 107.324C301.397 107.324 302.477 98.889 299.297 95.9955L294.776 98.2357C294.776 98.2357 299.187 105.304 296.196 111.074C296.196 111.074 296.966 102.224 293.826 98.7787L289.725 101.494C289.725 101.494 293.876 108.461 291.346 113.246C291.346 113.246 291.016 102.945 288.845 102.164C288.845 102.164 285.255 104.846 284.715 105.949C284.715 105.949 287.555 111.04 285.785 113.679C285.785 113.679 284.715 106.814 283.784 106.78C283.784 106.78 280.214 111.329 279.844 114.417C280.017 111.538 281.075 108.747 282.914 106.322C280.856 106.653 278.958 107.487 277.453 108.724C277.453 108.724 278.003 105.508 283.804 105.228C283.804 105.228 286.755 101.774 287.545 101.57C287.545 101.57 281.774 101.155 278.284 102.47C278.284 102.47 281.364 99.4406 288.595 100.773L292.596 97.9726C292.596 97.9726 285.015 97.1241 281.794 98.066C281.794 98.066 285.505 95.3846 293.686 97.3362L298.097 95.1045C298.097 95.1045 291.626 93.9251 287.775 94.3493C287.775 94.3493 291.836 92.491 299.387 94.5021L302.527 93.3056C302.527 93.3056 297.797 92.5165 296.406 92.3892C295.016 92.2619 294.946 91.9395 294.946 91.9395C297.949 91.5211 301.029 91.8148 303.848 92.788C303.848 92.788 310.599 90.7261 310.469 90.3697Z" fill="#145DA0"/>
<path opacity="0.1" d="M845.152 183.353C845.152 183.353 807.146 181.41 811.587 204.032C811.587 204.032 810.697 208.028 814.967 209.844C814.967 209.844 815.037 208.147 818.868 208.733C820.236 208.927 821.625 208.984 823.009 208.902C824.856 208.787 826.61 208.168 828.009 207.137V207.137C828.009 207.137 838.711 203.387 842.862 188.554C842.862 188.554 845.942 185.321 845.862 184.49L839.441 186.815C839.441 186.815 841.632 190.744 839.911 194.011C839.911 194.011 839.701 186.959 838.471 187.12C838.221 187.12 835.131 188.487 835.131 188.487C835.131 188.487 838.901 195.334 836.061 200.307C836.061 200.307 837.141 191.872 833.95 188.979L829.43 191.219C829.43 191.219 833.84 198.287 830.85 204.057C830.85 204.057 831.62 195.207 828.48 191.762L824.389 194.477C824.389 194.477 828.53 201.444 825.999 206.23C825.999 206.23 825.669 195.928 823.499 195.148C823.499 195.148 819.918 197.829 819.368 198.932C819.368 198.932 822.209 204.023 820.448 206.662C820.448 206.662 819.368 199.798 818.448 199.764C818.448 199.764 814.877 204.312 814.507 207.401C814.681 204.52 815.743 201.728 817.588 199.305C815.527 199.637 813.626 200.471 812.117 201.707C812.117 201.707 812.677 198.491 818.468 198.211C818.468 198.211 821.418 194.757 822.209 194.545C822.209 194.545 816.448 194.138 812.947 195.453C812.947 195.453 816.028 192.424 823.259 193.756L827.259 190.956C827.259 190.956 819.668 190.107 816.458 191.049C816.458 191.049 820.158 188.368 828.35 190.319L832.75 188.088C832.75 188.088 826.279 186.908 822.429 187.333C822.429 187.333 826.489 185.474 834.04 187.485L837.191 186.289C837.191 186.289 832.45 185.5 831.06 185.372C829.67 185.245 829.6 184.923 829.6 184.923C832.602 184.499 835.684 184.793 838.501 185.771C838.501 185.771 845.272 183.709 845.152 183.353Z" fill="#145DA0"/>
<path opacity="0.1" d="M374.479 230.124C374.479 230.124 357.916 200.994 336.833 215.351C336.833 215.351 332.282 216.641 332.502 220.689C332.502 220.689 334.252 219.917 335.502 223.039C335.97 224.143 336.587 225.197 337.343 226.179C338.366 227.51 339.872 228.523 341.633 229.064C341.633 229.064 350.705 235.156 367.998 230.998C367.998 230.998 372.828 231.703 373.618 231.211L368.098 227.587C368.098 227.587 365.097 231.126 360.916 231.44C360.916 231.44 368.078 227.85 367.307 227.019C367.147 226.849 364.307 225.211 364.307 225.211C364.307 225.211 359.096 231.346 352.595 231.66C352.595 231.66 361.797 228.351 363.217 224.575L358.716 222.318C358.716 222.318 353.585 229.038 346.194 229.632C346.194 229.632 355.676 225.89 357.686 221.885L352.905 220.188C352.905 220.188 347.754 226.654 341.593 227.121C341.593 227.121 352.035 221.851 351.775 219.857C351.775 219.857 347.264 218.516 345.864 218.644C345.864 218.644 342.044 223.217 338.443 223.217C338.443 223.217 344.974 219.068 344.574 218.398C344.574 218.398 338.153 217.973 334.772 219.246C337.819 217.962 341.208 217.377 344.604 217.549C343.257 216.186 341.47 215.187 339.463 214.673C339.463 214.673 343.044 213.519 346.154 217.668C346.154 217.668 351.155 218.169 351.745 218.652C351.745 218.652 349.355 214.189 346.304 212.246C346.304 212.246 350.925 213.035 353.035 219.034L357.886 220.663C357.886 220.663 355.096 214.622 352.525 212.712C352.525 212.712 357.086 214.146 359.076 221.198L363.517 223.37C363.517 223.37 361.587 217.999 359.266 215.36C359.266 215.36 363.157 217.464 364.767 224.032L367.537 225.78C367.537 225.78 366.037 221.885 365.537 220.799C365.037 219.713 365.287 219.492 365.287 219.492C367.19 221.507 368.395 223.931 368.768 226.493C368.768 226.493 374.119 230.379 374.479 230.124Z" fill="#145DA0"/>
<path opacity="0.1" d="M758.319 142.199C758.319 142.199 741.766 113.068 720.673 127.425C720.673 127.425 716.132 128.715 716.342 132.763C716.342 132.763 718.102 131.999 719.342 135.113C719.809 136.222 720.43 137.279 721.193 138.261C722.212 139.59 723.715 140.6 725.473 141.138V141.138C725.473 141.138 734.555 147.23 751.838 143.081C751.838 143.081 756.668 143.777 757.468 143.285L751.978 139.653C751.978 139.653 748.977 143.2 744.806 143.514C744.806 143.514 751.958 139.916 751.187 139.084C751.027 138.915 748.187 137.277 748.187 137.277C748.187 137.277 742.986 143.412 736.475 143.726C736.475 143.726 745.687 140.417 747.107 136.649L742.536 134.409C742.536 134.409 737.415 141.121 730.014 141.723C730.014 141.723 739.496 137.973 741.516 133.968L736.725 132.271C736.725 132.271 731.574 138.745 725.423 139.203C725.423 139.203 735.855 133.934 735.595 131.948C735.595 131.948 731.094 130.599 729.694 130.735C729.694 130.735 725.873 135.3 722.263 135.3C722.263 135.3 728.804 131.151 728.404 130.48C728.404 130.48 721.983 130.056 718.592 131.329C721.638 130.044 725.028 129.459 728.424 129.632C727.082 128.268 725.298 127.268 723.293 126.755C723.293 126.755 726.874 125.601 729.984 129.75C729.984 129.75 734.985 130.26 735.575 130.743C735.575 130.743 733.185 126.271 730.124 124.328C730.124 124.328 734.745 125.126 736.855 131.159L741.716 132.788C741.716 132.788 738.926 126.738 736.355 124.829C736.355 124.829 740.916 126.263 742.896 133.314L747.347 135.487C747.347 135.487 745.407 130.124 743.086 127.476C743.086 127.476 746.987 129.581 748.587 136.148L751.357 137.896C751.357 137.896 749.867 134.002 749.357 132.916C748.847 131.829 749.107 131.617 749.107 131.617C751.004 133.634 752.206 136.057 752.578 138.618C752.578 138.618 758.009 142.47 758.319 142.199Z" fill="#145DA0"/>
<path opacity="0.1" d="M811.217 286.289C811.217 286.289 794.664 257.151 773.541 271.508C773.541 271.508 769 272.798 769.21 276.845C769.21 276.845 770.971 276.081 772.211 279.196C772.674 280.304 773.292 281.361 774.051 282.344C775.071 283.672 776.574 284.682 778.332 285.22C778.332 285.22 787.413 291.321 804.706 287.163C804.706 287.163 809.527 287.868 810.327 287.367L804.806 283.744C804.806 283.744 801.805 287.291 797.625 287.605C797.625 287.605 804.776 284.007 804.006 283.175C803.846 283.006 801.005 281.368 801.005 281.368C801.005 281.368 795.804 287.503 789.293 287.825C789.293 287.825 798.505 284.507 799.925 280.74L795.414 278.483C795.414 278.483 790.294 285.203 782.892 285.797C782.892 285.797 792.374 282.047 794.394 278.042L789.603 276.345C789.603 276.345 784.453 282.81 778.302 283.277C778.302 283.277 788.743 278.008 788.483 276.014C788.483 276.014 783.973 274.664 782.572 274.8C782.572 274.8 778.752 279.365 775.141 279.365C775.141 279.365 781.682 275.216 781.282 274.546C781.282 274.546 774.861 274.121 771.471 275.394C774.521 274.11 777.913 273.525 781.312 273.697C779.968 272.331 778.18 271.331 776.171 270.82C776.171 270.82 779.752 269.658 782.862 273.816C782.862 273.816 787.863 274.316 788.453 274.8C788.453 274.8 786.063 270.337 783.012 268.385C783.012 268.385 787.633 269.183 789.744 275.216L794.594 276.845C794.594 276.845 791.804 270.795 789.233 268.894C789.233 268.894 793.794 270.32 795.774 277.38L800.225 279.543C800.225 279.543 798.285 274.181 795.964 271.533C795.964 271.533 799.865 273.638 801.475 280.214L804.246 281.911C804.246 281.911 802.746 278.016 802.245 276.93C801.745 275.844 801.995 275.632 801.995 275.632C803.897 277.646 805.099 280.07 805.466 282.632C805.466 282.632 810.907 286.544 811.217 286.289Z" fill="#145DA0"/>
<path opacity="0.1" d="M201.982 665.392C214.681 665.392 224.975 664.416 224.975 663.212C224.975 662.007 214.681 661.031 201.982 661.031C189.283 661.031 178.988 662.007 178.988 663.212C178.988 664.416 189.283 665.392 201.982 665.392Z" fill="#145DA0"/>
<path opacity="0.1" d="M51.248 628.328C63.947 628.328 74.2416 627.352 74.2416 626.147C74.2416 624.943 63.947 623.967 51.248 623.967C38.549 623.967 28.2544 624.943 28.2544 626.147C28.2544 627.352 38.549 628.328 51.248 628.328Z" fill="#145DA0"/>
<path opacity="0.1" d="M316.88 690.008C329.579 690.008 339.873 689.032 339.873 687.828C339.873 686.623 329.579 685.647 316.88 685.647C304.181 685.647 293.886 686.623 293.886 687.828C293.886 689.032 304.181 690.008 316.88 690.008Z" fill="#145DA0"/>
<path opacity="0.1" d="M905.672 636.389C918.371 636.389 928.665 635.413 928.665 634.208C928.665 633.004 918.371 632.028 905.672 632.028C892.973 632.028 882.678 633.004 882.678 634.208C882.678 635.413 892.973 636.389 905.672 636.389Z" fill="#145DA0"/>
<path opacity="0.1" d="M714.332 625.808C727.031 625.808 737.325 624.832 737.325 623.627C737.325 622.423 727.031 621.446 714.332 621.446C701.633 621.446 691.338 622.423 691.338 623.627C691.338 624.832 701.633 625.808 714.332 625.808Z" fill="#145DA0"/>
<path opacity="0.1" d="M590.552 677.416C605.571 677.416 617.747 675.642 617.747 673.453C617.747 671.265 605.571 669.491 590.552 669.491C575.533 669.491 563.358 671.265 563.358 673.453C563.358 675.642 575.533 677.416 590.552 677.416Z" fill="#145DA0"/>
<path d="M602.684 633.623C602.684 633.623 564.818 650.22 584.381 669.771C584.381 669.771 586.222 674.014 591.543 673.717C591.543 673.717 590.482 672.07 594.543 670.755C595.988 670.281 597.361 669.663 598.634 668.914C600.353 667.905 601.638 666.448 602.294 664.764V664.764C602.294 664.764 610.035 655.974 604.034 639.707C604.034 639.707 604.815 635.108 604.134 634.361L599.534 639.715C599.534 639.715 604.284 642.422 604.835 646.402C604.835 646.402 599.834 639.724 598.834 640.462C598.614 640.615 596.553 643.39 596.553 643.39C596.553 643.39 604.795 648.133 605.405 654.293C605.405 654.293 600.764 645.664 595.753 644.433L592.883 648.778C592.883 648.778 601.884 653.428 602.884 660.42C602.884 660.42 597.653 651.553 592.313 649.762L590.202 654.353C590.202 654.353 598.884 659.037 599.684 664.858C599.684 664.858 592.423 655.125 589.812 655.43C589.812 655.43 588.172 659.741 588.392 661.073C588.392 661.073 594.523 664.552 594.633 667.972C594.633 667.972 588.972 661.905 588.102 662.304C588.102 662.304 587.742 668.405 589.482 671.578C589.482 671.578 586.482 667.047 586.972 662.304C585.218 663.62 583.956 665.342 583.341 667.259C583.341 667.259 581.711 663.907 587.082 660.819C587.082 660.819 587.592 656.075 588.212 655.49C588.212 655.49 582.401 657.9 579.931 660.853C579.931 660.853 580.841 656.449 588.722 654.259L590.722 649.609C590.722 649.609 582.841 652.444 580.411 654.938C580.411 654.938 582.161 650.568 591.342 648.472L594.063 644.23C594.063 644.23 587.062 646.232 583.641 648.472C583.641 648.472 586.292 644.713 594.903 642.982L597.113 640.309C597.113 640.309 592.033 641.845 590.612 642.397C589.192 642.948 588.912 642.677 588.912 642.677C591.508 640.814 594.662 639.598 598.024 639.164C598.024 639.164 603.034 633.911 602.684 633.623Z" fill="#145DA0"/>
<path d="M715.072 320.147C708.531 305.069 672.525 303.652 656.903 307.496C645.801 310.236 622.397 313.325 609.895 314.878L609.085 314.224C610.706 313.817 610.746 312.816 610.546 311.331C610.429 309.374 610.462 307.412 610.646 305.459C618.307 307.479 625.128 302.701 625.128 302.701C634.129 299.307 631.709 284.78 633.429 280.809C634.719 277.839 636.11 260.342 636.73 251.619H636.86L636.93 248.692C637.02 247.427 637.06 246.689 637.06 246.689C637.06 246.689 637.94 225.357 639.66 221.038C641.26 217.066 642.561 197.058 642.761 193.884C642.761 193.613 642.761 193.469 642.761 193.469L642.631 191.619C642.721 190.27 642.761 188.768 642.751 187.189C642.751 179.934 641.86 170.796 641.75 169.319C641.75 169.107 641.75 168.852 641.75 168.547C641.82 165.45 641.36 149.938 625.808 144.075C620.077 141.903 613.186 139.315 606.515 136.794C604.795 124.194 600.864 111.661 601.204 98.9665C601.204 97.0573 601.404 95.1481 601.624 93.2473C601.624 93.7989 601.554 94.3589 601.544 94.9444C601.544 96.1748 601.544 97.4137 601.544 98.644C602.134 82.7678 609.205 66.8068 608.545 51.27C608.485 52.7889 608.355 54.3162 608.185 55.8436C608.53 50.5884 607.882 45.3203 606.265 40.2389C605.665 38.4485 604.855 36.5987 603.124 35.4022C601.489 34.4387 599.613 33.8085 597.644 33.5609C592.911 32.5331 588.103 31.7734 583.251 31.2868C582.514 29.3723 581.42 27.5703 580.011 25.9495C569.869 14.1378 554.847 3.03888 537.084 0.493252C528.173 -0.779561 517.921 0.281115 511.86 5.68632C511.227 6.16116 510.632 6.67143 510.08 7.2137C506.819 10.5145 505.419 14.8506 502.079 18.1429C501.859 18.3635 501.608 18.5672 501.368 18.7793C494.827 23.7433 484.636 24.7785 477.365 29.2334C476.083 30.0331 474.883 30.9214 473.774 31.8893C470.844 34.3525 468.217 37.062 465.933 39.9759C462.662 43.8792 459.302 47.9437 458.262 52.6022C456.171 61.9361 463.663 70.7864 465.053 80.1798C468.153 101.198 440.739 119.849 445.93 140.587C447.315 145.682 450.374 150.34 454.751 154.02C444.059 162.234 434.958 170.202 434.958 170.202V170.677H433.268L433.438 172.374H433.268L434.198 181.58L433.268 194.987C433.268 194.987 433.268 195.132 433.268 195.403V195.471V195.836C433.268 195.836 433.268 195.98 433.268 196.252H433.328C433.638 201.165 434.868 218.831 436.328 222.557C438.049 226.876 438.919 248.208 438.919 248.208C438.919 248.208 440.819 278.357 442.559 282.345C444.3 286.333 441.829 300.818 450.861 304.237C453.503 305.957 456.631 307.057 459.932 307.428C459.472 310.601 459.762 312.901 461.252 313.622C461.89 313.94 462.613 314.115 463.352 314.131C462.74 314.902 462.195 315.71 461.722 316.549C458.137 316.232 454.615 315.528 451.241 314.454C441.539 311.059 409.344 303.423 399.993 308.794C390.641 314.165 368.138 319.036 378.529 340.657C388.921 362.277 393.762 362.82 393.762 362.82C396.96 364.79 399.766 367.183 402.073 369.906C405.193 373.885 434.268 382.99 441.539 382.99C444.63 382.95 447.72 383.08 450.791 383.381C450.791 383.381 442.899 389.253 443.949 392.664C445 396.075 441.549 423.381 441.549 423.381C441.549 423.381 449.55 430.22 452.971 421.251L453.091 421.387C453.731 422.125 457.192 425.46 463.703 421.251C466.367 419.536 469.198 418.014 472.164 416.703L503.689 412.918C506.976 412.744 510.271 412.724 513.56 412.859C518.561 413.207 523.472 410.695 526.562 408.752C533.093 410.856 540.435 413.156 543.925 413.996C551.006 415.693 583.551 423.101 591.163 420.784C592.745 420.251 594.151 419.401 595.263 418.307L602.524 418.502L599.124 419.079C599.124 419.079 605.745 419.172 614.746 419.274L614.366 419.461L625.658 419.376C642.18 419.503 660.743 419.545 663.184 419.079C667.004 418.357 686.857 418.867 692.708 419.079H694.339C694.339 419.079 716.152 415.388 707.151 396.609C700.23 382.184 678.956 377.992 669.515 376.838C672.175 376.389 674.466 376.041 675.986 375.837C682.577 374.989 695.379 369.897 696.419 368.158C697.459 366.418 708.191 361.369 710.961 358.493C713.732 355.616 721.643 335.226 715.072 320.147ZM534.394 362.345L533.323 362.642L532.603 362.846L531.223 364C530.123 363.372 528.943 362.71 527.713 362.031C529.883 362.142 532.113 362.252 534.394 362.345Z" fill="url(#paint0_linear)"/>
<path d="M598.164 272.874C598.164 272.874 613.466 306.816 622.167 303.421C630.869 300.027 628.508 285.602 630.169 281.648C631.829 277.694 633.669 247.706 633.669 247.706C633.669 247.706 634.509 226.493 636.169 222.199C637.71 218.253 638.96 198.355 639.17 195.224C639.17 194.952 639.17 194.808 639.17 194.808L637.52 170.2L628.178 168.223L606.515 175.012L603.514 189.547L602.344 195.224L601.844 197.642L598.164 272.874Z" fill="#BE6F72"/>
<path opacity="0.1" d="M603.204 267.189C603.204 267.189 617.807 277.329 622.207 278.22C626.608 279.111 629.308 287.019 629.308 287.019" fill="black"/>
<path d="M478.495 274.359C478.495 274.359 463.192 308.301 454.491 304.906C445.79 301.512 448.15 287.087 446.49 283.133C444.83 279.179 442.989 249.191 442.989 249.191C442.989 249.191 442.149 227.978 440.489 223.684C438.949 219.738 437.698 199.84 437.488 196.709C437.488 196.437 437.488 196.293 437.488 196.293L439.149 171.685L448.49 169.708L470.154 176.497L473.154 191.032L474.324 196.709L474.824 199.127L478.495 274.359Z" fill="#BE6F72"/>
<path d="M578.14 92.7201H543.985V137.888H578.14V92.7201Z" fill="#3E373A"/>
<path opacity="0.1" d="M578.14 92.7201H543.985V137.888H578.14V92.7201Z" fill="black"/>
<path d="M472.494 308.165C472.494 308.165 460.822 319.052 465.153 321.029C469.483 323.006 497.498 360.062 497.498 360.062C497.498 360.062 589.512 369.676 606.865 355.25C624.218 340.825 623.868 315.055 623.868 315.055C623.868 315.055 609.925 317.601 608.405 316.217C606.885 314.834 598.534 308.165 598.534 308.165C598.534 308.165 480.495 302.089 472.494 308.165Z" fill="#4B4B5B"/>
<path opacity="0.02" d="M472.494 308.165C472.494 308.165 460.822 319.052 465.153 321.029C469.483 323.006 497.498 360.062 497.498 360.062C497.498 360.062 589.512 369.676 606.865 355.25C624.218 340.825 623.868 315.055 623.868 315.055C623.868 315.055 609.925 317.601 608.405 316.217C606.885 314.834 598.534 308.165 598.534 308.165C598.534 308.165 480.495 302.089 472.494 308.165Z" fill="black"/>
<path d="M638.14 170.557L608.135 190.922L599.064 191.482L595.733 191.686L539.794 195.165L481.785 191.567L473.154 191.032L462.152 190.353L439.149 171.685C439.149 171.685 455.431 156.887 469.693 146.9C475.314 142.954 480.625 139.763 484.496 138.507L485.156 138.312C487.59 137.507 489.764 136.221 491.497 134.562C502.759 124.71 513.17 100.399 513.17 100.399C513.17 100.399 562.848 78.6259 556.847 107.188C550.846 135.75 579.181 128.69 579.181 128.69L588.522 132.305L592.213 133.739L601.624 137.396L622.857 145.661C639.52 152.169 638.14 170.557 638.14 170.557Z" fill="#BE6F72"/>
<path opacity="0.1" d="M537.464 123.658C562.138 123.658 582.141 106.688 582.141 85.7536C582.141 64.8196 562.138 47.8493 537.464 47.8493C512.79 47.8493 492.787 64.8196 492.787 85.7536C492.787 106.688 512.79 123.658 537.464 123.658Z" fill="black"/>
<path opacity="0.1" d="M638.21 197.557H437.488C437.488 197.286 437.488 197.142 437.488 197.142L439.149 172.534C439.149 172.534 455.431 157.735 469.693 147.748L595.713 143.505L601.574 138.261L622.807 146.526C639.48 153.026 638.14 171.414 638.14 171.414C638.14 171.414 640.42 192.721 638.21 197.557Z" fill="black"/>
<path d="M638.21 196.709H437.488C437.488 196.437 437.488 196.293 437.488 196.293L439.149 171.685C439.149 171.685 455.431 156.887 469.693 146.9L595.713 142.657L601.574 137.413L622.807 145.678C639.48 152.177 638.14 170.565 638.14 170.565C638.14 170.565 640.42 191.872 638.21 196.709Z" fill="#E7C7CA"/>
<path opacity="0.1" d="M505.289 127.706C505.289 127.706 536.954 161.936 579.131 127.001C621.307 92.0668 583.801 204.923 583.801 204.923L492.787 214.087L505.289 127.706Z" fill="black"/>
<path d="M505.289 129.403C505.289 129.403 536.954 163.633 579.131 128.698C621.307 93.7638 583.801 206.62 583.801 206.62L492.787 215.784L505.289 129.403Z" fill="#E7C7CA"/>
<path opacity="0.1" d="M592.163 135.41L595.513 178.762L599.104 193.187L601.844 204.218C601.844 204.218 608.845 289.073 606.845 293.315C604.845 297.558 607.845 300.952 608.265 303.209C608.685 305.466 607.845 311.135 608.175 313.68C608.505 316.226 608.175 317.355 600.514 316.447C592.853 315.539 582.171 313.96 582.171 313.96C582.171 313.96 555.167 315.657 545.835 312.832C536.504 310.006 518.831 309.998 518.831 309.998C518.831 309.998 492.157 310.566 483.496 309.718C474.834 308.869 470.154 318.772 464.493 315.937C458.832 313.103 471.154 285.678 475.154 277.753C479.155 269.828 469.824 249.751 469.824 249.751L481.825 193.264L484.496 180.459V140.205L485.156 140.009C487.59 139.204 489.764 137.918 491.497 136.259L494.497 176.768L588.512 179.602V134.01" fill="black"/>
<path d="M592.163 133.713L595.513 177.065L599.104 191.49L601.844 202.521C601.844 202.521 608.845 287.376 606.845 291.618C604.845 295.861 607.845 299.255 608.265 301.512C608.685 303.769 607.845 309.438 608.175 311.983C608.505 314.529 608.175 315.657 600.514 314.75C592.853 313.842 582.171 312.263 582.171 312.263C582.171 312.263 555.167 313.96 545.835 311.135C536.504 308.309 518.831 308.301 518.831 308.301C518.831 308.301 492.157 308.869 483.496 308.021C474.834 307.172 470.154 317.075 464.493 314.24C458.832 311.406 471.154 283.981 475.154 276.056C479.155 268.131 469.824 248.054 469.824 248.054L481.825 191.567L484.496 178.762V138.507L485.156 138.312C487.59 137.507 489.764 136.221 491.497 134.562L494.497 175.071L588.512 177.905V132.313" fill="#E7C7CA"/>
<path opacity="0.1" d="M602.974 43.2417C602.404 41.4682 601.614 39.6269 599.974 38.4389C598.408 37.4847 596.598 36.8569 594.693 36.6061C590.131 35.5883 585.493 34.8342 580.811 34.349C580.142 32.4648 579.13 30.681 577.81 29.0625C568.009 17.3187 553.507 6.24527 536.444 3.74207C527.513 2.42683 517.161 3.6063 511.44 9.58003C508.3 12.8639 506.949 17.2169 503.779 20.4414C497.668 26.7036 486.636 27.4758 478.935 32.3209C474.824 34.8666 471.844 38.5577 468.933 42.1386C465.783 46.0164 462.542 50.0555 461.542 54.6885C459.542 63.9461 466.753 72.7709 468.083 82.1134C471.084 103.013 444.68 121.554 449.67 142.173C452.581 154.197 465.673 162.665 479.215 166.959C483.986 168.478 489.437 169.988 491.667 173.875C492.667 175.572 492.837 177.532 493.777 179.246C496.938 184.965 507.329 185.186 512.91 181.019C518.491 176.853 520.251 170.116 520.911 163.828C523.592 136.369 510.63 109.241 512.14 81.7145C512.59 73.3903 515.351 63.9461 524.142 60.1786C535.974 55.0873 550.206 63.5727 563.228 61.952C569.39 74.6728 570.698 88.7123 566.969 102.097C564.898 109.419 561.318 116.522 561.058 124.074C560.668 135.571 567.979 146.076 574.3 156.242C575.656 158.143 576.563 160.25 576.97 162.445C577.07 164.672 576.581 166.89 575.54 168.936C571.97 177.091 565.808 184.66 565.108 193.34C564.903 194.353 565.172 195.395 565.858 196.242C566.563 196.808 567.473 197.155 568.439 197.226C579.241 198.796 588.582 190.676 593.853 182.521C599.729 173.515 603.154 163.506 603.874 153.23C604.965 135.953 597.663 118.957 598.114 101.664C598.634 82.003 609.105 62.2066 602.974 43.2417Z" fill="black"/>
<path d="M603.974 42.3931C603.404 40.6197 602.614 38.7783 600.974 37.5904C599.408 36.6362 597.599 36.0083 595.693 35.7575C591.131 34.7398 586.493 33.9857 581.811 33.5004C581.142 31.6162 580.13 29.8325 578.81 28.214C569.009 16.4702 554.507 5.39673 537.444 2.89353C528.513 1.57829 518.161 2.75776 512.44 8.73149C509.3 12.0153 507.949 16.3684 504.779 19.5928C498.668 25.8551 487.636 26.6272 479.935 31.4724C475.824 34.018 472.844 37.7092 469.934 41.29C466.783 45.1679 463.542 49.2069 462.542 53.84C460.542 63.0975 467.753 71.9224 469.083 81.2648C472.084 102.164 445.68 120.705 450.67 141.325C453.581 153.348 466.673 161.817 480.215 166.11C484.986 167.629 490.437 169.14 492.667 173.026C493.667 174.723 493.837 176.683 494.777 178.397C497.938 184.117 508.329 184.337 513.91 180.171C519.491 176.004 521.251 169.267 521.912 162.979C524.592 135.521 511.63 108.393 513.14 80.866C513.59 72.5418 516.351 63.0975 525.142 59.33C536.974 54.2388 551.206 62.7242 564.228 61.1035C570.39 73.8243 571.699 87.8637 567.969 101.248C565.899 108.571 562.318 115.673 562.058 123.225C561.668 134.723 568.979 145.228 575.3 155.393C576.656 157.294 577.563 159.401 577.97 161.596C578.07 163.823 577.581 166.041 576.54 168.088C572.97 176.242 566.809 183.811 566.109 192.492C565.903 193.505 566.172 194.546 566.859 195.394C567.563 195.959 568.473 196.306 569.439 196.378C580.241 197.948 589.582 189.827 594.853 181.673C600.73 172.666 604.154 162.657 604.875 152.381C605.965 135.105 598.664 118.108 599.114 100.815C599.634 81.1545 610.105 61.358 603.974 42.3931Z" fill="#3E373A"/>
<path d="M581.881 418.102L621.557 419.18L615.866 394.215L585.472 396.668L581.881 418.102Z" fill="#C3C7D9"/>
<path d="M704.82 358.933C702.15 361.759 691.818 366.85 690.818 368.547C689.818 370.244 677.486 375.335 671.145 376.184C664.804 377.032 644.811 380.715 641.14 382.692C638.51 384.118 617.397 388.632 603.524 391.135C599.767 391.889 595.964 392.47 592.133 392.875C586.132 393.155 520.461 374.207 520.461 374.207L533.123 363.176L533.823 362.972C537.404 361.945 553.947 357.202 563.128 354.945C573.47 352.399 585.472 341.937 585.472 341.937C585.472 341.937 603.134 336.846 605.475 336.277C607.815 335.708 599.474 316.481 599.474 316.481C599.474 316.481 637.81 311.966 652.812 308.139C667.814 304.312 702.49 305.73 708.821 320.723C715.152 335.717 707.531 356.107 704.82 358.933Z" fill="#4B4B5B"/>
<path d="M530.123 406.731C530.123 406.731 522.462 413.52 514.791 412.96C507.119 412.4 480.295 414.657 480.295 414.657C475.434 416.302 470.882 418.54 466.783 421.301C460.512 425.493 457.182 422.149 456.561 421.437L456.451 421.301C453.111 430.219 445.45 423.422 445.45 423.422C445.45 423.422 448.78 396.269 447.76 392.875C446.74 389.481 454.351 383.651 454.351 383.651L463.352 381.708L486.156 376.752L518.831 386.366L530.123 406.731Z" fill="#E7C7CA"/>
<path opacity="0.1" d="M463.313 381.708L456.561 421.437L456.451 421.301C453.111 430.219 445.45 423.422 445.45 423.422C445.45 423.422 448.78 396.269 447.76 392.875C446.74 389.481 454.351 383.651 454.351 383.651L463.313 381.708Z" fill="black"/>
<path opacity="0.1" d="M510.5 268.699C510.5 268.699 528.163 273.79 543.505 268.699Z" fill="black"/>
<path opacity="0.1" d="M570.799 278.322C570.799 278.322 578.13 281.427 583.801 278.322Z" fill="black"/>
<path opacity="0.1" d="M570.799 285.687C570.799 285.687 583.131 287.087 585.472 284.261Z" fill="black"/>
<path opacity="0.1" d="M566.799 301.512C566.799 301.512 589.962 298.967 595.713 295.572Z" fill="black"/>
<path opacity="0.1" d="M496.118 295.572C496.118 295.572 509.12 301.792 518.791 301.512Z" fill="black"/>
<path opacity="0.1" d="M603.514 391.135C599.757 391.889 595.954 392.47 592.123 392.875C586.122 393.155 520.451 374.207 520.451 374.207L533.113 363.176L533.813 362.972C535.814 364.169 537.454 365.195 538.624 365.976C544.135 369.659 549.456 364.847 551.456 364.847C553.457 364.847 570.789 377.007 570.789 377.007C570.789 377.007 586.792 380.121 589.462 382.947C592.133 385.772 601.464 385.212 603.124 387.19C603.624 387.8 603.684 389.302 603.514 391.135Z" fill="black"/>
<path d="M480.295 317.635C480.295 317.635 464.113 318.424 454.781 315.089C445.45 311.754 414.445 304.058 405.443 309.463C396.442 314.868 374.769 319.646 384.77 341.148C394.772 362.65 399.442 363.21 399.442 363.21C402.537 365.179 405.238 367.557 407.444 370.253C410.444 374.215 438.449 383.261 445.45 383.261C452.451 383.261 464.783 383.261 482.115 393.443C499.448 403.626 515.121 404.763 515.121 404.763C515.121 404.763 537.124 412.4 543.975 414.097C550.826 415.794 582.131 423.142 589.472 420.885C596.813 418.628 601.474 404.474 601.474 404.474C601.474 404.474 604.805 391.746 603.134 389.769C601.464 387.792 592.133 388.352 589.472 385.526C586.812 382.701 570.799 379.587 570.799 379.587C570.799 379.587 553.507 367.418 551.506 367.418C549.506 367.418 544.185 372.221 538.674 368.547C527.697 361.649 516.163 355.411 504.159 349.879C491.497 344.219 480.295 317.635 480.295 317.635Z" fill="#4B4B5B"/>
<path opacity="0.1" d="M447.76 325.84C450.641 325.341 453.62 325.412 456.463 326.05C459.306 326.687 461.938 327.872 464.153 329.514C472.154 335.174 499.078 346.536 499.078 346.536" fill="black"/>
<path opacity="0.1" d="M647.811 325.484C647.811 325.484 612.136 330.066 605.475 336.285Z" fill="black"/>
<path d="M688.818 419.18H687.247C681.607 419.01 662.494 418.501 658.813 419.18C654.482 420.028 597.133 419.18 597.133 419.18L608.345 417.202C608.345 417.202 604.184 404.831 606.825 403.804C606.825 403.804 591.823 395.42 603.134 389.761C614.446 384.101 626.638 386.485 626.638 386.485L655.032 378.322L660.483 376.752C660.483 376.752 692.488 378.169 701.15 396.837C709.811 415.505 688.818 419.18 688.818 419.18Z" fill="#E7C7CA"/>
<path opacity="0.1" d="M688.818 419.179H687.247C696.559 412.663 717.622 392.824 655.032 378.365L660.483 376.795C660.483 376.795 692.488 378.212 701.15 396.88C709.811 415.548 688.818 419.179 688.818 419.179Z" fill="black"/>
<path d="M629.979 397.185C630.945 397.185 631.729 396.521 631.729 395.7C631.729 394.88 630.945 394.215 629.979 394.215C629.012 394.215 628.228 394.88 628.228 395.7C628.228 396.521 629.012 397.185 629.979 397.185Z" fill="#4B4B5B"/>
<path d="M619.807 399.638C620.774 399.638 621.557 398.973 621.557 398.153C621.557 397.333 620.774 396.668 619.807 396.668C618.84 396.668 618.057 397.333 618.057 398.153C618.057 398.973 618.84 399.638 619.807 399.638Z" fill="#4B4B5B"/>
<g opacity="0.1">
<path opacity="0.1" d="M570.249 84.3531C570.637 75.0198 568.68 65.7233 564.508 57.081C551.506 58.7271 537.264 50.2163 525.422 55.3075C516.661 59.075 513.91 68.5193 513.42 76.8435C513.3 79.0412 513.28 81.2389 513.33 83.4367C513.33 82.656 513.33 81.8669 513.42 81.0862C513.88 72.762 516.631 63.3177 525.422 59.5502C537.264 54.459 551.486 62.9444 564.508 61.3237C568.041 68.6441 569.986 76.4459 570.249 84.3531V84.3531Z" fill="black"/>
<path opacity="0.1" d="M469.493 82.8007C469.665 80.9517 469.621 79.093 469.363 77.2512C468.303 69.7841 463.492 62.6478 462.622 55.3673C461.502 64.1497 468.093 72.5843 469.363 81.4939C469.493 81.9522 469.493 82.3594 469.493 82.8007Z" fill="black"/>
<path opacity="0.1" d="M522.192 158.949C521.572 165.245 519.821 171.974 514.19 176.149C508.56 180.324 498.188 180.094 495.057 174.375C494.057 172.678 493.907 170.701 492.937 169.004C490.717 165.118 485.256 163.607 480.485 162.088C466.933 157.786 453.861 149.36 450.951 137.303C450.691 136.21 450.513 135.105 450.42 133.993C450.175 136.519 450.353 139.062 450.951 141.545C453.861 153.569 466.953 162.029 480.485 166.331C485.256 167.85 490.717 169.36 492.937 173.247C493.937 174.944 494.107 176.904 495.057 178.618C498.208 184.337 508.6 184.558 514.19 180.391C519.781 176.225 521.522 169.488 522.192 163.192C522.496 159.878 522.6 156.553 522.502 153.23C522.502 155.156 522.372 157.057 522.192 158.949Z" fill="black"/>
<path opacity="0.1" d="M599.444 96.7931C599.444 98.0235 599.444 99.2454 599.444 100.467C600.004 84.6845 606.825 68.8167 606.155 53.3648C605.635 67.6542 599.824 82.2661 599.444 96.7931Z" fill="black"/>
<path opacity="0.1" d="M577.98 160.637C578.226 159.631 578.304 158.599 578.21 157.574C577.808 155.378 576.9 153.271 575.54 151.371C569.759 142.037 563.168 132.483 562.388 122.122C562.388 122.563 562.318 122.971 562.308 123.446C561.908 134.935 569.219 145.449 575.54 155.614C576.614 157.188 577.435 158.878 577.98 160.637V160.637Z" fill="black"/>
<path opacity="0.1" d="M605.195 148.359C604.448 158.639 601 168.648 595.103 177.651C589.822 185.805 580.491 193.926 569.679 192.356C568.71 192.285 567.8 191.935 567.099 191.363C566.896 191.169 566.736 190.944 566.629 190.701C566.509 191.363 566.409 192.033 566.349 192.712C566.142 193.723 566.411 194.762 567.099 195.606C567.8 196.177 568.71 196.528 569.679 196.599C580.491 198.168 589.822 190.048 595.103 181.893C601 172.89 604.448 162.882 605.195 152.602C605.315 150.616 605.325 148.639 605.255 146.662C605.235 147.23 605.235 147.79 605.195 148.359Z" fill="black"/>
</g>
<path opacity="0.1" d="M606.825 403.804C606.825 403.804 632.139 412.815 648.831 392.875" stroke="black" stroke-miterlimit="10"/>
<path opacity="0.1" d="M611.806 419.553C611.806 419.553 632.479 408.148 658.813 419.179" stroke="black" stroke-miterlimit="10"/>
<path opacity="0.1" d="M473.424 416.965C473.424 416.965 482.105 400.35 505.289 413.019" stroke="black" stroke-miterlimit="10"/>
<path opacity="0.1" d="M445.28 171.261L462.982 157.684C462.982 157.684 531.623 153.866 534.464 173.663C534.464 173.663 558.797 150.192 609.975 155.419L631.629 170.048L571.779 192.33L513.62 209.446L470.784 193.179L445.28 171.261Z" fill="black"/>
<path d="M445.28 172.11L462.982 158.533C462.982 158.533 531.623 154.715 534.464 174.511C534.464 174.511 558.797 151.04 609.975 156.267L631.629 170.896L571.779 193.179L513.62 210.294L470.784 194.027L445.28 172.11Z" fill="#D5D6DB"/>
<path opacity="0.1" d="M437.448 173.807L445.28 253.29L528.293 256.828L524.692 177.685L524.622 176.352L437.448 173.807Z" fill="black"/>
<path d="M437.448 172.11L445.28 251.593L528.293 255.131L524.692 175.988L524.622 174.655L437.448 172.11Z" fill="#145DA0"/>
<path opacity="0.1" d="M635.429 172.11L549.796 183.005V262.844L633.479 252.585L635.429 172.11Z" fill="black"/>
<path d="M635.429 170.413L549.796 181.308V261.147L633.479 250.888L635.429 170.413Z" fill="#145DA0"/>
<path opacity="0.3" d="M615.236 189.895L568.979 194.257L569.989 207.63L615.206 203.438L615.236 189.895Z" fill="white"/>
<path d="M449.78 294.155L454.491 304.906C454.491 304.906 461.492 309.998 469.153 307.452C476.815 304.906 483.496 303.642 486.826 301.164C490.157 298.687 494.827 286.238 494.827 286.238C494.827 286.238 499.498 272.662 504.159 269.268C508.82 265.874 521.161 219.11 504.159 223.684C487.156 228.258 474.154 270.685 474.154 270.685C474.154 270.685 471.154 273.79 466.823 274.079C462.492 274.367 453.821 273.51 452.151 276.625C450.48 279.739 444.78 287.936 449.78 294.155Z" fill="#BE6F72"/>
<path opacity="0.1" d="M549.796 182.996C545.412 183.835 540.857 183.791 536.496 182.869C532.135 181.946 528.089 180.171 524.682 177.685L528.293 256.82C528.293 256.82 536.794 264.626 549.796 262.844V182.996Z" fill="black"/>
<path d="M549.796 181.299C545.412 182.138 540.857 182.094 536.496 181.171C532.135 180.249 528.089 178.474 524.682 175.988L528.293 255.122C528.293 255.122 536.794 262.929 549.796 261.147V181.299Z" fill="#145DA0"/>
<path opacity="0.1" d="M549.796 181.299C545.412 182.138 540.857 182.094 536.496 181.171C532.135 180.249 528.089 178.474 524.682 175.988L528.293 255.122C528.293 255.122 536.794 262.929 549.796 261.147V181.299Z" fill="black"/>
<path opacity="0.1" d="M551.796 172.381C551.796 172.381 586.632 163.344 595.713 164.617Z" fill="black"/>
<path opacity="0.1" d="M512.83 168.436C512.83 168.436 479.065 161.647 473.424 163.573Z" fill="black"/>
<path opacity="0.1" d="M573.76 173.51C573.76 173.51 597.053 166.263 605.475 169.708Z" fill="black"/>
<path opacity="0.1" d="M562.028 355.293C565.637 352.993 569.48 350.968 573.51 349.243C579.511 346.79 590.512 340.426 590.512 340.426" fill="black"/>
<path opacity="0.1" d="M473.424 268.699C473.424 268.699 458.812 278.839 454.421 279.73C450.03 280.621 447.32 288.53 447.32 288.53" fill="black"/>
<path d="M626.838 292.645L622.177 303.421C622.177 303.421 615.176 308.513 607.505 305.967C599.834 303.421 593.173 302.157 589.832 299.679C586.492 297.202 581.831 284.754 581.831 284.754C581.831 284.754 577.17 271.177 572.499 267.783C567.829 264.389 555.497 217.625 572.499 222.199C589.502 226.773 602.504 269.2 602.504 269.2C602.504 269.2 605.505 272.305 609.835 272.594C614.166 272.882 622.837 272.025 624.508 275.14C626.178 278.254 631.839 286.451 626.838 292.645Z" fill="#BE6F72"/>
<path opacity="0.1" d="M618.667 272.823C618.667 272.823 628.218 278.033 628.178 284.261Z" fill="black"/>
<path d="M537.624 121.8C562.298 121.8 582.301 104.829 582.301 83.8953C582.301 62.9613 562.298 45.991 537.624 45.991C512.95 45.991 492.947 62.9613 492.947 83.8953C492.947 104.829 512.95 121.8 537.624 121.8Z" fill="#BE6F72"/>
<path d="M509.57 73.7213C514.991 73 519.741 70.3271 524.922 68.7913C536.514 65.3377 549.336 67.7051 561.068 70.8193C565.568 72.0157 570.139 73.3649 574.86 73.3649C579.581 73.3649 584.591 71.7272 587.002 68.2736C589.222 65.1001 588.792 60.9762 586.922 57.6414C585.051 54.3067 581.921 51.6253 578.761 49.0966C568.359 40.7639 555.457 32.9743 541.185 33.8229C535.444 34.1708 529.953 35.9103 524.672 37.8365C518.023 40.2675 511.55 43.033 505.289 46.1182C500.478 48.4857 491.567 51.6507 488.796 55.9783C482.495 65.728 499.768 75.028 509.57 73.7213Z" fill="#3E373A"/>
<path opacity="0.1" d="M587.002 64.7098C584.591 68.1633 579.581 69.801 574.86 69.801C570.139 69.801 565.568 68.5028 561.058 67.3063C549.326 64.1922 536.514 61.8163 524.912 65.2783C519.741 66.8142 514.981 69.521 509.56 70.1998C501.658 71.252 488.937 65.4141 487.556 57.9893C486.006 66.5681 500.758 73.9164 509.56 72.7455C514.981 72.0242 519.741 69.3513 524.912 67.8239C536.514 64.3619 549.326 66.7378 561.058 69.8519C565.568 71.0484 570.129 72.3976 574.86 72.3466C579.591 72.2957 584.591 70.7175 587.002 67.2554C588.251 65.372 588.743 63.1944 588.402 61.0526C588.246 62.342 587.769 63.5887 587.002 64.7098Z" fill="black"/>
<path d="M949.568 524.577C949.568 524.577 955.499 531.153 946.828 541.09C938.157 551.026 931.016 559.409 933.896 565.604C933.896 565.604 946.978 547.157 957.62 546.894C968.261 546.63 961.26 535.667 949.568 524.577Z" fill="#145DA0"/>
<path opacity="0.1" d="M949.568 524.577C950.085 525.212 950.492 525.906 950.779 526.639C961.16 536.991 966.701 546.656 956.71 546.894C947.408 547.123 936.256 561.234 933.586 564.789C933.671 565.077 933.775 565.36 933.896 565.638C933.896 565.638 946.978 547.19 957.62 546.927C968.261 546.664 961.26 535.667 949.568 524.577Z" fill="black"/>
<path d="M960.57 532.96C960.57 535.277 960.26 537.152 959.89 537.152C959.52 537.152 959.2 535.277 959.2 532.96C959.2 530.644 959.58 531.739 959.96 531.739C960.34 531.739 960.57 530.644 960.57 532.96Z" fill="#FFD037"/>
<path d="M964.361 535.727C961.97 536.83 959.88 537.5 959.7 537.22C959.52 536.94 961.31 535.812 963.701 534.675C966.091 533.538 965.151 534.369 965.331 534.675C965.511 534.98 966.761 534.615 964.361 535.727Z" fill="#FFD037"/>
<path d="M918.224 524.577C918.224 524.577 912.293 531.153 920.964 541.09C929.635 551.026 936.777 559.409 933.886 565.604C933.886 565.604 920.814 547.157 910.162 546.894C899.511 546.63 906.562 535.667 918.224 524.577Z" fill="#145DA0"/>
<path opacity="0.1" d="M918.224 524.577C917.707 525.212 917.3 525.906 917.013 526.639C906.632 536.991 901.091 546.656 911.082 546.894C920.374 547.123 931.536 561.234 934.206 564.789C934.122 565.078 934.015 565.361 933.886 565.638C933.886 565.638 920.814 547.19 910.162 546.927C899.511 546.664 906.562 535.667 918.224 524.577Z" fill="black"/>
<path d="M907.202 532.96C907.202 535.277 907.502 537.152 907.882 537.152C908.262 537.152 908.572 535.277 908.572 532.96C908.572 530.644 908.182 531.739 907.812 531.739C907.442 531.739 907.202 530.644 907.202 532.96Z" fill="#FFD037"/>
<path d="M903.421 535.727C905.812 536.83 907.902 537.5 908.082 537.22C908.262 536.94 906.472 535.812 904.081 534.675C901.691 533.538 902.631 534.369 902.451 534.675C902.271 534.98 901.021 534.615 903.421 535.727Z" fill="#FFD037"/>
<path opacity="0.1" d="M933.896 615.939C968.143 615.939 995.906 612.326 995.906 607.87C995.906 603.413 968.143 599.8 933.896 599.8C899.649 599.8 871.886 603.413 871.886 607.87C871.886 612.326 899.649 615.939 933.896 615.939Z" fill="#145DA0"/>
<path d="M965.811 556.737L965.511 558.79L965.091 561.692L964.921 562.905L964.501 565.807L964.321 567.021L963.911 569.914L959.16 602.923C958.74 605.867 953.069 608.167 946.218 608.167H921.564C914.713 608.167 909.052 605.867 908.622 602.923L903.871 569.914L903.451 567.021L903.281 565.807L902.861 562.905L902.681 561.692L902.271 558.79L901.971 556.737C901.741 555.04 904.801 553.665 908.682 553.665H959.11C962.981 553.665 966.051 555.065 965.811 556.737Z" fill="#65617D"/>
<path d="M965.511 558.79L965.101 561.692H902.691L902.271 558.79H965.511Z" fill="#9D9CB5"/>
<path d="M964.921 562.905L964.511 565.807H903.281L902.861 562.905H964.921Z" fill="#9D9CB5"/>
<path d="M964.331 567.021L963.911 569.923H903.871L903.461 567.021H964.331Z" fill="#9D9CB5"/>
</g>
<defs>
<linearGradient id="paint0_linear" x1="546.725" y1="425.901" x2="546.725" y2="0.00109489" gradientUnits="userSpaceOnUse">
<stop stop-color="#808080" stop-opacity="0.25"/>
<stop offset="0.54" stop-color="#808080" stop-opacity="0.12"/>
<stop offset="1" stop-color="#808080" stop-opacity="0.1"/>
</linearGradient>
<clipPath id="clip0">
<rect width="1023" height="690" fill="white"/>
</clipPath>
</defs>
</svg>
