<svg width="983" height="674" viewBox="0 0 983 674" fill="none" xmlns="http://www.w3.org/2000/svg">
<g clip-path="url(#clip0)">
<path opacity="0.1" d="M959.097 390.713C959.097 391.225 959.097 391.737 959.097 392.24C958.991 401.07 958.367 409.877 957.227 418.662C957.233 418.715 957.233 418.768 957.227 418.821C957.137 419.552 957.037 420.273 956.937 421.004C956.767 422.237 956.587 423.463 956.387 424.697C954.055 439.715 950.198 454.538 944.856 469.004V469.004C937.699 488.552 927.582 507.249 914.752 524.635C910.805 529.95 906.601 535.095 902.141 540.07C899.761 542.705 897.33 545.282 894.82 547.817C893.06 549.59 891.266 551.336 889.44 553.054L888.299 554.112C878.687 562.969 868.326 571.232 857.296 578.838C839.294 591.361 819.912 602.255 800.22 612.36C799.099 612.94 797.969 613.51 796.839 614.039C796.76 614.087 796.677 614.129 796.589 614.165C769.826 627.745 742.073 639.999 713.48 649.811C682.176 660.579 649.853 668.41 616.689 671.835C570.464 676.602 523.679 672.724 477.733 666.06C439.522 660.55 401.773 652.981 364.721 643.398L358.62 641.795C355.46 640.95 352.303 640.089 349.149 639.21C330.1 633.923 311.265 628.047 292.643 621.585C245.873 605.418 201.192 585.285 159.298 561.498C153.964 558.487 148.707 555.41 143.526 552.265C136.285 547.889 129.131 543.385 122.064 538.752L117.703 535.915C99.2076 523.761 81.879 510.405 65.8774 495.972C44.355 476.315 25.9629 454.14 13.8715 428.826C11.9647 424.848 10.2178 420.794 8.63096 416.664L8.48095 416.253C7.68086 414.155 6.94077 412.056 6.2607 409.874C5.26058 406.752 4.38382 403.591 3.6304 400.39C3.47039 399.777 3.33037 399.165 3.20036 398.543C0.809975 387.772 -0.245768 376.822 0.0500019 365.869C0.300135 356.271 1.63967 346.716 4.05045 337.332V337.332C6.51794 327.604 10.3204 318.149 15.3817 309.156V309.156C19.9556 301.069 25.7834 293.525 32.7137 286.721V286.721C37.5835 281.963 43.0601 277.668 49.0455 273.913C59.8967 267.131 71.928 262.406 84.3994 258.671C90.2601 256.908 96.2008 255.364 102.171 253.928C106.402 252.904 110.652 251.931 114.883 250.974L127.364 248.145C135.365 246.316 143.366 244.436 151.247 242.404C172.729 236.899 193.782 230.234 213.254 220.297C216.334 218.727 219.475 217.007 222.615 215.16C226.615 212.827 230.556 210.292 234.456 207.556C238.397 204.786 242.257 201.823 245.938 198.684C246.508 198.197 247.068 197.711 247.628 197.215C250.628 194.563 253.538 191.785 256.239 188.898C257.559 187.488 258.839 186.052 260.059 184.592C261.749 182.569 263.349 180.513 264.83 178.398C272.25 167.822 276.831 156.156 276.291 143.86C276.212 141.834 275.995 139.813 275.641 137.808C274.341 130.397 273.091 123.162 272.17 116.087C268.31 86.8196 269.94 60.2802 296.113 35.344C328.657 4.34787 379.732 -1.97222 426.228 0.50378C560.653 7.63801 683.026 72.0475 790.568 148.728C799.87 155.353 809.057 162.067 818.132 168.872C820.419 170.584 822.709 172.307 825.002 174.042C842.004 186.892 858.746 200.22 874.338 214.497C875.598 215.655 876.858 216.814 878.098 217.98C878.858 218.702 879.628 219.415 880.379 220.146C885.239 224.762 889.956 229.49 894.53 234.33C906.783 247.18 917.603 260.946 926.854 275.457C941.019 298.229 950.609 322.808 955.237 348.201V348.201C956.977 357.422 958.122 366.716 958.667 376.041C958.837 378.786 958.947 381.539 959.007 384.283C959.007 385.165 959.007 386.038 959.007 386.919C959.107 388.195 959.107 389.437 959.097 390.713Z" fill="#6C63FF"/>
<path d="M394.024 376.637L378.022 615.667L394.024 615.843L407.026 373.28L394.024 376.637Z" fill="#3F3D56"/>
<path d="M335.017 497.743H136.995V533.833H335.017V497.743Z" fill="#6C63FF"/>
<path d="M348.019 529.628V552.29H143.466C136.225 547.914 129.071 543.41 122.004 538.777V529.628H348.019Z" fill="#3F3D56"/>
<path d="M388.864 478.052C388.303 480.226 387.573 482.375 386.803 484.515C384.533 490.701 381.803 496.803 381.273 503.232C380.563 511.726 383.273 521.605 376.272 527.774C374.472 529.368 372.122 530.56 370.511 532.264C370.263 532.531 370.036 532.811 369.831 533.103C368.391 535.101 368.221 537.535 368.201 539.818C368.218 544.687 368.595 549.55 369.331 554.38C371.702 570.999 376.382 587.651 370.231 603.338C369.117 606.058 367.818 608.723 366.341 611.32C363.341 616.859 360.07 622.323 359.09 628.324C358.37 632.773 358.59 637.355 358.55 641.879C355.39 641.034 352.233 640.173 349.079 639.294C330.03 634.006 311.195 628.131 292.573 621.668C292.623 621.442 292.673 621.207 292.713 620.98C294.143 613.51 292.183 605.872 289.802 598.587C284.802 583.152 277.721 567.868 273.531 552.324C271.843 546.252 270.736 540.078 270.22 533.859C270.1 532.465 270.03 531.064 270.02 529.662C269.97 527.832 270.02 526.003 270.11 524.156C270.32 520.471 270.51 516.099 267 513.858C265.07 512.641 262.519 512.431 260.269 511.692C255.929 510.274 252.958 506.984 249.518 504.348C247.877 503.012 245.873 502.031 243.679 501.49C241.486 500.949 239.168 500.864 236.927 501.243C214.444 505.565 197.922 521.571 177 529.662C176.19 529.981 175.38 530.283 174.56 530.568C171.853 531.4 169.277 532.505 166.889 533.859C165.21 534.836 163.993 536.277 163.448 537.929C162.918 539.709 163.378 541.572 163.638 543.402C164.059 546.377 163.907 549.389 163.188 552.324C162.917 553.461 162.56 554.582 162.118 555.681C161.318 557.67 160.248 559.617 159.228 561.556C153.894 558.546 148.637 555.468 143.456 552.324C136.215 547.948 129.061 543.444 121.994 538.811L117.703 535.915C99.2076 523.761 81.879 510.405 65.8774 495.972C68.0076 490.936 71.088 486.252 72.5681 481.09C73.4082 478.128 73.7182 475.047 74.8784 472.169C76.2162 469.184 78.0769 466.383 80.399 463.859C88.9034 453.906 99.2879 445.185 111.142 438.042C123.534 430.589 137.845 424.613 148.997 416.152C153.522 412.827 157.423 408.948 160.568 404.645C160.758 404.385 160.938 404.108 161.098 403.806C161.968 402.287 162.571 400.669 162.888 399.005C163.688 395.245 163.568 391.115 163.968 387.506C177.553 389.48 191.402 389.83 205.103 388.547C221.055 387.045 236.656 383.326 252.608 381.883C253.808 381.765 255.019 381.673 256.229 381.589C261.339 381.245 266.46 381.169 271.59 381.22C275.881 381.22 280.171 381.379 284.462 381.497L331.697 382.84C336.928 382.991 342.268 383.159 347.139 384.762C352.919 386.667 357.55 390.461 361.26 394.632C361.73 395.169 362.201 395.706 362.641 396.26C365.694 399.998 368.142 404.06 369.921 408.338C370.111 408.775 370.291 409.177 370.461 409.656C370.911 410.823 371.302 411.998 371.652 413.189C371.922 414.121 372.162 415.053 372.382 415.993C373.482 420.643 374.132 425.393 375.872 429.884C375.992 430.211 376.122 430.538 376.262 430.857C378.352 435.776 381.823 440.182 384.443 444.907C386.332 448.328 387.774 451.91 388.744 455.592C390.702 462.985 390.743 470.645 388.864 478.052V478.052Z" fill="#35323E"/>
<path d="M245.287 177.684C241.067 174.864 234.946 176.929 230.006 178.75C225.863 180.286 221.599 181.579 217.244 182.62C216.353 182.907 215.387 182.991 214.444 182.863C212.444 182.46 211.604 180.471 210.114 179.262C207.523 177.172 203.283 177.668 199.942 178.801C196.602 179.934 193.302 181.57 189.721 181.319C185.901 181.067 182.58 178.7 178.72 178.624C171.919 178.49 166.209 185.524 159.778 183.66C155.857 182.527 152.777 178.247 148.917 179.464C145.916 180.421 145.646 183.904 143.836 186.178C141.706 188.831 137.555 189.578 134.005 190.753C122.814 194.462 115.403 204.929 116.863 214.95C117.673 220.481 120.864 225.551 122.974 230.83C129.234 246.181 127.084 263.497 134.975 278.302C135.975 277.513 136.535 277.219 137.505 276.439C135.01 280.782 134.529 285.748 136.155 290.372C136.985 292.697 138.335 294.862 139.356 297.137C140.415 299.688 141.271 302.295 141.916 304.942L150.617 337.155C154.017 349.745 157.428 362.335 158.018 375.227C158.385 383.61 157.62 392 155.737 400.239C171.499 398.048 185.921 392.181 201.893 392.257C207.753 392.257 213.564 393.096 219.375 393.768C236.316 395.757 253.404 396.73 270.51 396.68C273.171 396.807 275.835 396.493 278.351 395.757C280.551 394.968 282.352 393.566 284.432 392.551C288.502 390.536 293.433 390.033 298.123 390.033C319.516 389.705 340.128 396.277 361.38 398.594C369.771 383.813 370.271 366.104 363.831 350.652C361.92 346.061 359.35 341.587 358.59 336.761C358.285 333.794 358.205 330.814 358.35 327.839C358.317 320.222 356.681 312.67 353.52 305.53C352.279 302.735 350.789 299.889 350.919 296.91C351.049 293.93 352.799 291.152 354.52 288.517C358.01 283.145 361.52 277.723 366.451 273.191C371.502 268.507 377.822 264.94 384.073 261.44L399.505 252.745C397.394 241.557 394.674 229.773 389.024 219.483C383.373 209.192 374.922 199.733 363.491 193.715C359.637 191.77 355.603 190.086 351.429 188.679C345.589 186.615 339.508 184.793 333.177 184.483C325.976 184.139 318.886 185.759 311.775 186.766C289.392 189.93 263.049 189.544 245.287 177.684Z" fill="#6C63FF"/>
<path d="M414.026 371.836L406.686 379.617L392.844 394.28L376.842 411.225L372.372 415.959H363.701L148.987 416.169L14.5216 416.295H8.52095C7.72086 414.197 6.98078 412.098 6.3007 409.916C5.30059 406.794 4.42383 403.632 3.67041 400.432C3.51039 399.819 3.37038 399.206 3.24036 398.585L52.0258 371.819L70.3679 371.735L126.474 371.467L157.808 371.316H163.528H167.119L188.001 371.223L347.159 370.46L355.3 370.418H358.83L368.181 370.376L402.975 370.208L409.656 368.076L410.146 368.512L414.026 371.836Z" fill="#3F3D56"/>
<path d="M411.026 367.639L410.196 368.479L404.735 373.875L393.494 385.013L369.921 408.338L161.098 403.864L3.6304 400.507C3.47039 399.894 3.33037 399.282 3.20036 398.661C0.809975 387.889 -0.245768 376.94 0.0500019 365.986L17.512 358.482L21.5124 356.753L52.6459 343.324L79.9689 331.574L151.237 339.346L167.019 341.066L174.159 341.839L184.611 342.98L185.491 343.081L349.379 360.916L367.491 362.889L378.122 364.047L410.886 367.623L411.026 367.639Z" fill="#504F60"/>
<path d="M377.022 407.927L376.852 411.225L375.852 429.85L370.471 532.247L369.331 554.38L366.331 611.319L364.641 643.482L358.54 641.879C355.38 641.034 352.223 640.172 349.069 639.294L363.701 416.035L364.011 411.351L370.451 409.673L377.022 407.927Z" fill="#3F3D56"/>
<path d="M14.9817 407.683L14.5316 416.303L13.8715 428.893C11.9647 424.915 10.2178 420.861 8.63096 416.731L8.48095 416.32C7.68086 414.222 6.94077 412.123 6.2607 409.941L14.9817 407.683Z" fill="#3F3D56"/>
<path d="M276.511 280.778C301.919 280.778 322.516 257.48 322.516 228.74C322.516 200 301.919 176.702 276.511 176.702C251.103 176.702 230.506 200 230.506 228.74C230.506 257.48 251.103 280.778 276.511 280.778Z" fill="#A1616A"/>
<path opacity="0.1" d="M276.511 280.778C301.919 280.778 322.516 257.48 322.516 228.74C322.516 200 301.919 176.702 276.511 176.702C251.103 176.702 230.506 200 230.506 228.74C230.506 257.48 251.103 280.778 276.511 280.778Z" fill="black"/>
<path d="M283.012 250.982C318.362 250.982 347.019 226.932 347.019 197.266C347.019 167.599 318.362 143.549 283.012 143.549C247.662 143.549 219.005 167.599 219.005 197.266C219.005 226.932 247.662 250.982 283.012 250.982Z" fill="#A1616A"/>
<path d="M284.282 114.475C280.374 114.736 276.494 115.233 272.671 115.961C262.549 118.025 253.798 122.608 245.277 127.107C241.457 129.13 237.527 131.236 235.156 134.207C230.896 139.537 232.546 146.319 230.156 152.236C228.916 155.274 226.635 158.002 224.705 160.831C219.395 168.586 216.614 177.105 213.884 185.54C213.324 187.286 213.164 189.653 215.434 190.324C216.741 190.552 218.101 190.423 219.315 189.955C226.485 187.966 235.596 187.395 240.917 191.432C246.238 195.469 245.788 202.629 252.118 205.701C259.369 209.251 270.69 204.962 277.271 209.15C280.091 210.947 281.111 213.825 283.422 215.991C288.802 221.027 299.153 220.783 307.764 219.768C312.705 219.18 318.766 218.786 321.766 221.698C323.206 223.075 323.616 224.963 325.286 226.205C328.287 228.455 333.777 227.313 336.708 225.005C339.638 222.697 341.038 219.575 343.478 216.981C348.229 211.945 356.58 209.201 361.48 204.224C365.581 200.027 366.821 194.773 367.941 189.703L372.112 170.911C373.802 163.29 375.342 154.964 370.231 148.249C368.411 145.832 365.801 143.75 364.231 141.249C363.181 139.571 362.591 137.8 361.37 136.213C359.924 134.561 358.195 133.096 356.24 131.866L346.369 125.008C342.994 122.529 339.385 120.284 335.578 118.294C321.486 111.403 300.384 113.216 284.282 114.475Z" fill="#464353"/>
<path d="M73.4582 252.845C71.088 254.961 68.8977 257.243 66.3574 259.224C64.1228 260.892 61.786 262.461 59.3566 263.924C55.4362 266.387 51.6024 268.935 47.8553 271.571C43.9461 274.165 40.4087 277.13 37.3142 280.409C31.9736 286.427 29.4433 293.913 24.4427 300.133C20.0222 305.647 13.7915 310.003 9.30104 315.476C7.33105 317.776 5.8678 320.355 4.98056 323.088C4.31829 325.734 4.01964 328.435 4.09046 331.137C4.00045 335.569 3.92044 340.051 5.00056 344.39C6.08068 348.729 8.45094 352.993 12.5114 355.839C16.2818 358.482 21.1524 359.699 25.9229 360.707C28.3832 361.219 31.0435 361.697 33.3837 360.883C35.0962 360.157 36.5826 359.105 37.7242 357.811L49.8956 346.06C58.0365 338.171 66.4974 330.113 77.6687 325.497C81.1691 324.062 84.8595 322.979 88.3699 321.586C103.252 315.568 113.773 303.247 117.853 289.818C118.853 286.536 119.493 283.187 120.143 279.838L121.904 270.656C122.039 270.196 122.039 269.715 121.904 269.254C121.628 268.737 121.184 268.294 120.623 267.978C112.146 262.233 104.208 255.947 96.8808 249.178C95.1406 247.566 93.5105 245.359 91.5002 244.007C88.9799 242.329 89.17 242.455 86.1396 244.007C81.478 246.484 77.2158 249.455 73.4582 252.845V252.845Z" fill="#A1616A"/>
<path d="M156.718 313.948C156.616 313.753 156.469 313.577 156.285 313.431C156.101 313.285 155.883 313.172 155.646 313.098C155.408 313.025 155.155 312.992 154.902 313.002C154.649 313.013 154.401 313.066 154.173 313.159C153.945 313.252 153.742 313.382 153.575 313.543C153.409 313.703 153.283 313.89 153.205 314.092C153.127 314.294 153.098 314.508 153.121 314.72C153.144 314.932 153.217 315.137 153.337 315.325L152.337 315.736L182.16 367.035L187.551 364.828L157.728 313.495L156.718 313.948Z" fill="#3F3D56"/>
<path opacity="0.04" d="M73.4582 252.845C71.088 254.961 68.8977 257.243 66.3574 259.224C64.1228 260.892 61.786 262.461 59.3566 263.924C55.4362 266.387 51.6024 268.935 47.8553 271.571C43.9461 274.165 40.4087 277.13 37.3142 280.409C31.9736 286.427 29.4433 293.913 24.4427 300.133C20.0222 305.647 13.7915 310.003 9.30104 315.476C7.33105 317.776 5.8678 320.355 4.98056 323.088C4.31829 325.734 4.01964 328.435 4.09046 331.137C4.00045 335.569 3.92044 340.051 5.00056 344.39C6.08068 348.729 8.45094 352.993 12.5114 355.839C16.2818 358.482 21.1524 359.699 25.9229 360.707C28.3832 361.219 31.0435 361.697 33.3837 360.883C35.0962 360.157 36.5826 359.105 37.7242 357.811L49.8956 346.06C58.0365 338.171 66.4974 330.113 77.6687 325.497C81.1691 324.062 84.8595 322.979 88.3699 321.586C103.252 315.568 113.773 303.247 117.853 289.818C118.853 286.536 119.493 283.187 120.143 279.838L121.904 270.656C122.039 270.196 122.039 269.715 121.904 269.254C121.628 268.737 121.184 268.294 120.623 267.978C112.146 262.233 104.208 255.947 96.8808 249.178C95.1406 247.566 93.5105 245.359 91.5002 244.007C88.9799 242.329 89.17 242.455 86.1396 244.007C81.478 246.484 77.2158 249.455 73.4582 252.845V252.845Z" fill="black"/>
<path d="M418.237 347.387C418.137 352.741 417.887 358.256 415.236 363.141C414.096 365.256 412.326 367.337 409.676 368.034C408.072 368.345 406.412 368.396 404.785 368.185C385.164 366.738 365.393 368.054 346.289 372.079C351.389 363.518 348.459 353.253 349.869 343.752C350.259 341.159 350.969 338.607 351.239 336.005C352.239 326.773 347.529 317.809 345.369 308.694C343.493 300.804 343.493 292.68 345.369 284.79C345.737 282.759 346.569 280.807 347.819 279.041C349.284 277.322 351.209 275.916 353.44 274.936C361.54 271.067 371.092 270.622 380.193 271.134C386.323 271.478 398.615 270.992 403.725 274.156C409.316 277.622 411.086 289.264 412.596 294.644C414.857 302.895 416.395 311.274 417.197 319.714C418.177 328.913 418.387 338.154 418.237 347.387Z" fill="#A1616A"/>
<path d="M59.9867 365.969L95.9907 386.113L258.009 381.077L150.997 365.969H59.9867Z" fill="white"/>
<path d="M107.462 205.919C101.551 210.292 96.5408 215.445 90.9402 220.104C83.2593 226.499 74.5283 231.938 65.8374 237.352C68.9535 238.083 71.79 239.48 74.0691 241.408C76.3482 243.335 77.9917 245.726 78.8388 248.347C79.2189 249.581 79.4089 250.865 79.8389 252.073C80.839 254.935 83.0393 257.403 85.3996 259.627C95.5407 269.221 109.732 276.321 115.713 288.164C115.908 288.74 116.331 289.244 116.913 289.591C117.4 289.772 117.94 289.824 118.463 289.742C123.874 289.264 128.014 285.604 131.465 282.045C138.666 274.492 144.916 266.149 148.467 256.933C152.017 247.717 152.587 237.528 148.717 228.396C146.786 223.847 143.806 219.667 140.846 215.529C138.252 211.909 135.665 208.294 133.085 204.685C131.735 202.78 130.015 198.911 127.364 197.971C121.644 195.906 111.132 202.839 107.462 205.919Z" fill="#6C63FF"/>
<path d="M402.035 260.164L410.546 276.951C401.281 274.234 391.378 273.407 381.657 274.538C371.936 275.669 362.675 278.726 354.64 283.456C349.789 286.368 345.339 290.027 343.148 294.677C342.067 294.85 340.95 294.762 339.926 294.425C338.901 294.088 338.011 293.515 337.358 292.772C336.078 291.265 335.335 289.483 335.218 287.635C334.427 281.189 337.338 274.869 340.218 268.843C341.558 266.023 342.938 263.144 345.319 260.853C347.699 258.561 350.859 257.051 354.02 255.624C364.102 250.944 374.662 247.029 385.573 243.924C390.174 242.673 394.994 242.698 397.574 246.307C400.565 250.613 399.695 255.582 402.035 260.164Z" fill="#6C63FF"/>
<path d="M60.1967 310.532C62.327 311.959 64.1972 313.646 66.3874 315.006C68.7037 316.355 71.1686 317.516 73.7482 318.472L83.6093 322.45C86.6652 323.783 89.8628 324.874 93.1604 325.707C97.3809 326.655 101.811 326.748 106.052 327.629C111.402 328.737 116.293 331.045 121.564 332.38C126.834 333.714 133.005 333.932 137.405 331.154C140.156 329.417 142.236 326.546 145.646 326.118C147.847 325.875 149.967 326.764 151.927 327.629L177.59 338.951C181.05 340.479 184.711 342.174 186.521 345.087C188.331 347.999 187.111 352.423 183.301 353.178C181.972 353.306 180.637 353.37 179.3 353.371C177.98 353.505 176.54 354.16 176.36 355.276C176.353 355.969 176.571 356.651 176.99 357.249C178.14 359.464 178.48 362.117 177.14 364.265C175.8 366.414 172.509 367.749 169.879 366.783C170.329 370.031 166.119 372.306 162.368 373.171C152.907 375.344 142.876 374.01 133.205 372.633C129.404 372.096 125.544 371.542 122.084 370.115C120.423 369.436 118.883 368.563 117.203 367.933C112.593 366.213 107.352 366.439 102.311 366.515C78.9988 366.859 55.8863 363.233 32.9637 359.624C28.7132 358.952 24.3427 358.239 20.7123 356.267C13.7115 352.439 11.1112 344.583 12.2614 337.634C13.4115 330.684 17.612 324.389 21.7424 318.279L27.093 310.364C27.7925 309.152 28.7715 308.068 29.9734 307.175C37.8442 302.13 53.456 305.983 60.1967 310.532Z" fill="#A1616A"/>
<path opacity="0.04" d="M60.1967 310.532C62.327 311.959 64.1972 313.646 66.3874 315.006C68.7037 316.355 71.1686 317.516 73.7482 318.472L83.6093 322.45C86.6652 323.783 89.8628 324.874 93.1604 325.707C97.3809 326.655 101.811 326.748 106.052 327.629C111.402 328.737 116.293 331.045 121.564 332.38C126.834 333.714 133.005 333.932 137.405 331.154C140.156 329.417 142.236 326.546 145.646 326.118C147.847 325.875 149.967 326.764 151.927 327.629L177.59 338.951C181.05 340.479 184.711 342.174 186.521 345.087C188.331 347.999 187.111 352.423 183.301 353.178C181.972 353.306 180.637 353.37 179.3 353.371C177.98 353.505 176.54 354.16 176.36 355.276C176.353 355.969 176.571 356.651 176.99 357.249C178.14 359.464 178.48 362.117 177.14 364.265C175.8 366.414 172.509 367.749 169.879 366.783C170.329 370.031 166.119 372.306 162.368 373.171C152.907 375.344 142.876 374.01 133.205 372.633C129.404 372.096 125.544 371.542 122.084 370.115C120.423 369.436 118.883 368.563 117.203 367.933C112.593 366.213 107.352 366.439 102.311 366.515C78.9988 366.859 55.8863 363.233 32.9637 359.624C28.7132 358.952 24.3427 358.239 20.7123 356.267C13.7115 352.439 11.1112 344.583 12.2614 337.634C13.4115 330.684 17.612 324.389 21.7424 318.279L27.093 310.364C27.7925 309.152 28.7715 308.068 29.9734 307.175C37.8442 302.13 53.456 305.983 60.1967 310.532Z" fill="black"/>
<path d="M365.491 325.035C360.28 327.1 354.3 327.302 348.859 328.888C343.418 330.474 338.798 333.328 333.807 335.653C320.806 341.746 305.804 344.046 291.073 346.237C282.142 347.58 273.071 348.922 264.07 348.604C251.888 348.167 240.187 344.759 228.386 342.191C216.584 339.623 203.993 337.894 192.302 340.781C186.196 342.341 180.615 345.087 176.011 348.795C171.406 352.503 167.907 357.07 165.799 362.125C163.348 368.16 163.008 374.664 163.478 381.027C165.939 382.546 169.379 380.439 170.719 378.131C172.059 375.823 172.789 372.994 175.39 371.651C179.9 372.935 181 377.98 184.721 380.473C187.041 382.034 190.141 382.445 193.092 382.798L208.293 384.61C211.954 385.047 216.204 385.341 218.855 383.175C220.145 382.126 220.855 380.657 222.035 379.533C224.455 377.283 228.496 376.897 232.096 377.199C243.337 378.139 253.878 384.258 265.04 382.806C268.88 382.311 272.45 380.934 276.111 379.851C297.803 373.422 321.906 377.334 344.479 373.649C353.09 372.247 361.38 369.763 369.571 367.144C374.022 365.726 378.522 364.24 382.323 361.84C385.923 359.516 388.763 356.464 390.575 352.969C392.387 349.474 393.113 345.65 392.684 341.855C391.847 336.072 388.409 330.776 383.073 327.05C381.313 325.791 379.002 323.382 376.892 322.593C372.862 321.107 368.911 323.684 365.491 325.035Z" fill="#A1616A"/>
<g opacity="0.1">
<path opacity="0.1" d="M336.268 217.812C334.597 216.57 334.187 214.682 332.747 213.305C329.747 210.393 323.686 210.787 318.746 211.375C310.135 212.39 299.744 212.625 294.403 207.598C292.093 205.432 291.073 202.562 288.252 200.757C281.672 196.561 270.35 200.858 263.099 197.308C256.769 194.211 257.179 187.026 251.898 183.039C246.618 179.052 237.467 179.573 230.296 181.562C229.082 182.03 227.723 182.159 226.415 181.931C224.145 181.26 224.305 178.893 224.865 177.147C227.595 168.712 230.376 160.193 235.686 152.438C237.617 149.609 239.897 146.881 241.137 143.843C243.307 138.522 242.197 132.504 245.047 127.468C241.987 129.146 239.047 130.976 237.157 133.343C232.896 138.673 234.546 145.454 232.156 151.372C230.916 154.41 228.636 157.138 226.705 159.966C221.395 167.722 218.614 176.241 215.884 184.676C215.324 186.422 215.164 188.789 217.434 189.46C218.742 189.688 220.101 189.558 221.315 189.091C228.486 187.102 237.597 186.531 242.917 190.568C248.238 194.605 247.788 201.764 254.118 204.836C261.369 208.387 272.691 204.098 279.271 208.286C282.092 210.082 283.112 212.961 285.422 215.126C290.803 220.162 301.154 219.919 309.765 218.903C314.705 218.316 320.766 217.921 323.766 220.834C325.206 222.21 325.616 224.099 327.287 225.341C330.287 227.59 335.778 226.449 338.708 224.141C340.587 222.499 342.195 220.653 343.488 218.652C340.888 219.315 338.118 219.214 336.268 217.812Z" fill="black"/>
<path opacity="0.1" d="M354.49 208.58C353.846 209.276 353.248 210.002 352.699 210.754C356.54 208.454 360.61 206.305 363.481 203.376C364.226 202.618 364.895 201.809 365.481 200.959C361.49 203.359 357.33 205.567 354.49 208.58Z" fill="black"/>
</g>
<path d="M556.542 374.782L559.543 615.667L573.544 613.988L570.544 374.782H556.542Z" fill="#3F3D56"/>
<path d="M640.552 418.427L643.552 659.312L657.554 657.633L654.553 418.427H640.552Z" fill="#3F3D56"/>
<path d="M902.111 540.111L902.051 535.487V532.734L901.521 490.365L900.691 424.126L900.551 418.41H886.549L886.619 423.916L887.059 459.394L887.249 474.754L887.409 487.192L887.669 508.696L887.829 521.378V522.721L888.039 539.39L888.219 554.086L889.36 553.029C891.193 551.311 892.987 549.565 894.74 547.791L902.111 540.111Z" fill="#3F3D56"/>
<path d="M625.05 457.455L617.049 467.493L625.05 513.228L693.058 528.848H803.07L869.077 532.197L900.521 514.134L895.08 483.113L871.077 457.455H625.05Z" fill="#6C63FF"/>
<path d="M617.049 467.493L613.049 495.376C613.049 495.376 592.046 550.041 761.065 546.692C930.084 543.343 901.081 532.188 901.081 532.188L900.081 499.841C900.081 499.841 905.971 515.15 820.072 513.077C734.172 511.004 654.053 504.306 654.053 504.306C654.053 504.306 624.05 508.763 617.049 467.493Z" fill="#3F3D56"/>
<path d="M757.865 217.577C748.224 221.262 740.923 228.404 736.032 236.302C731.142 244.2 728.392 252.871 725.681 261.482C722.821 270.564 719.951 279.67 718.47 288.978C715.83 305.53 717.81 322.929 726.871 337.793C735.932 352.658 752.674 364.651 772.276 367.514C779.847 368.63 787.628 368.403 795.279 367.74C809.108 366.511 822.73 363.992 835.893 360.228C849.645 356.325 863.957 350.316 870.077 339.245C873.628 332.824 873.928 325.506 873.758 318.438C873.286 299.177 869.82 280.049 863.447 261.541C861.596 256.169 859.446 250.756 855.526 246.232C851.605 241.708 846.245 238.392 840.774 235.32C817.381 222.101 786.638 206.599 757.865 217.577Z" fill="#FBBEBE"/>
<path opacity="0.05" d="M757.865 217.577C748.224 221.262 740.923 228.404 736.032 236.302C731.142 244.2 728.392 252.871 725.681 261.482C722.821 270.564 719.951 279.67 718.47 288.978C715.83 305.53 717.81 322.929 726.871 337.793C735.932 352.658 752.674 364.651 772.276 367.514C779.847 368.63 787.628 368.403 795.279 367.74C809.108 366.511 822.73 363.992 835.893 360.228C849.645 356.325 863.957 350.316 870.077 339.245C873.628 332.824 873.928 325.506 873.758 318.438C873.286 299.177 869.82 280.049 863.447 261.541C861.596 256.169 859.446 250.756 855.526 246.232C851.605 241.708 846.245 238.392 840.774 235.32C817.381 222.101 786.638 206.599 757.865 217.577Z" fill="black"/>
<path d="M747.034 323.223C749.824 326.442 753.199 329.274 757.035 331.616C766.556 337.139 778.777 337.886 790.338 338.188C799.619 338.423 810.261 337.978 816.081 331.901C818.702 329.165 819.882 325.673 820.942 322.274C827.484 301.401 832.131 280.142 834.843 258.679L861.326 258.754C872.788 299.94 871.848 342.754 870.847 385.047L869.397 446.72L852.335 445.201C811.821 441.6 771.246 438 730.512 437.379C706.644 437.01 682.77 437.671 658.984 439.359L696.138 346.648C700.958 334.595 705.829 322.383 706.959 309.718C708.589 291.345 702.449 271.948 710.96 254.952C711.64 253.584 712.5 252.166 714.05 251.452C715.6 250.739 717.56 250.915 719.34 251.108C722.701 251.486 732.972 251.108 735.412 252.913C739.013 255.531 736.632 255.926 735.362 260.148C733.092 267.702 730.942 274.693 730.972 282.566C731.002 296.86 736.282 311.951 747.034 323.223Z" fill="#6C63FF"/>
<path d="M902.111 540.111C906.571 535.143 910.775 529.998 914.722 524.676C912.722 521.084 910.522 517.576 908.772 513.908C906.091 508.284 904.551 502.325 903.031 496.408C902.511 494.394 901.994 492.379 901.481 490.365C895.88 468.45 890.62 446.225 889.53 424.008C889.43 422.162 889.366 420.315 889.34 418.469C889.34 418.2 889.34 417.94 889.34 417.629C889.34 415.607 889.34 413.584 889.34 411.569C889.46 406.533 889.84 401.456 890.53 396.403C890.66 395.412 890.81 394.422 890.97 393.432C890.97 393.213 891.03 393.004 891.07 392.785L959.077 390.704L964.798 390.528C968.728 390.41 972.889 390.225 976.129 388.354C981.58 385.215 982.22 378.777 982.13 373.246C981.799 359.266 979.911 345.343 976.489 331.658C973.909 321.368 970.229 310.851 961.968 302.944C955.187 296.448 945.366 291.723 941.835 283.64C940.525 280.635 940.195 277.337 938.495 274.466C936.795 271.596 933.985 269.489 931.334 267.273C922.007 259.517 914.269 250.521 908.432 240.65C904.381 233.801 899.991 226.247 894.7 221.514C894.44 221.27 894.18 221.044 893.91 220.825C889.41 217.09 884.259 215.454 878.158 217.997C877.061 218.459 876.017 219.004 875.038 219.625V219.625C872.864 221.019 870.875 222.606 869.107 224.359C862.945 230.305 857.538 236.775 852.975 243.663C849.767 248.513 847.012 253.564 844.735 258.771C842.937 262.885 841.451 267.09 840.284 271.361C839.424 274.525 838.744 277.723 838.204 280.929C836.204 292.982 836.204 305.269 836.484 317.473C836.784 328.686 837.374 339.925 838.584 351.096C838.884 353.799 839.217 356.499 839.584 359.196C840.317 364.528 841.224 369.844 842.304 375.143C842.734 377.166 843.174 379.188 843.664 381.203C843.784 381.74 843.914 382.277 844.045 382.806L844.105 383.032C845.426 387.715 846.451 392.452 847.175 397.225C847.255 397.824 847.315 398.42 847.355 399.013C847.523 401.757 847.497 404.506 847.275 407.247C847.045 410.487 846.685 413.718 846.505 416.958C846.505 417.529 846.505 418.091 846.435 418.636C846.385 420.273 846.435 421.91 846.435 423.546C846.638 427.462 847.193 431.359 848.095 435.205C849.782 442.357 852.696 449.267 856.746 455.718C857.126 456.322 857.516 456.918 857.906 457.505C862.977 465.11 869.377 472.084 874.068 479.865C878.114 486.866 881.136 494.253 883.069 501.864C883.736 504.376 884.369 506.894 884.969 509.417C885.899 513.446 886.729 517.508 887.579 521.571C887.659 521.974 887.749 522.41 887.839 522.779C888.969 528.168 890.16 533.531 891.69 538.794C892.58 541.857 893.58 544.879 894.75 547.85L902.111 540.111Z" fill="#464353"/>
<path d="M888.749 473.956C888.749 474.711 888.689 475.467 888.649 476.231C888.471 479.913 888.067 483.586 887.439 487.234C886.611 492.214 885.159 497.106 883.109 501.83C881.75 504.936 880.021 507.92 877.948 510.735C876.11 513.235 873.957 515.562 871.527 517.676C865.527 522.914 856.886 524.584 848.525 526.791C844.678 527.726 840.96 529.001 837.434 530.593C836.804 530.887 836.184 531.206 835.583 531.542L825.122 537.358C821.862 539.163 818.532 541.035 816.291 543.712C815.924 544.168 815.59 544.641 815.291 545.131C813.876 547.595 812.84 550.201 812.211 552.886C806.77 571.905 801.32 590.941 797.589 610.245C797.339 611.521 797.099 612.805 796.839 614.089L796.749 614.492C796.704 614.397 796.65 614.304 796.589 614.215C769.826 627.795 742.073 640.049 713.48 649.861L707.269 606.216C706.622 602.668 706.407 599.074 706.629 595.49C707.219 589.841 709.959 584.486 710.7 578.854C711.401 573.341 710.159 567.776 707.129 562.849C705.949 560.935 704.469 559.055 704.199 556.915C703.929 554.774 705.399 552.819 707.959 552.6C709.959 550.737 710.119 548.194 709.529 545.676C709.216 544.362 708.747 543.077 708.129 541.84C706.429 538.332 704.279 534.513 705.739 530.929C706.125 530.28 706.298 529.555 706.239 528.831C706.25 528.787 706.25 528.741 706.239 528.697C705.899 527.757 704.569 527.345 703.879 526.548C702.579 525.062 703.879 523.04 704.679 521.327C705.457 519.488 705.909 517.562 706.019 515.612C706.129 514.529 706.209 513.438 706.349 512.363C706.544 510.91 706.855 509.468 707.279 508.049C709.709 500.009 715.552 492.99 723.711 488.309C727.601 486.109 731.932 484.506 735.902 482.433C739.97 480.132 743.852 477.609 747.524 474.879C756.331 468.724 765.489 462.922 774.997 457.472C785.22 451.612 795.81 446.216 806.72 441.307C809.054 440.249 811.387 439.219 813.721 438.218C816.261 437.099 818.818 436.038 821.392 435.037C829.633 431.738 838.984 432.972 848.095 435.171C851.915 436.086 855.686 437.177 859.326 438.167C862.881 439.137 866.301 440.426 869.527 442.012C877.598 445.99 884.269 451.865 887.039 459.285C887.044 459.332 887.044 459.38 887.039 459.427C888.799 464.077 888.909 469.063 888.749 473.956Z" fill="#F86D70"/>
<path opacity="0.1" d="M888.749 473.956C888.749 474.711 888.689 475.467 888.649 476.231C888.471 479.913 888.067 483.586 887.439 487.234C886.611 492.214 885.159 497.106 883.109 501.83C881.75 504.936 880.021 507.92 877.948 510.735C876.11 513.235 873.957 515.562 871.527 517.676C865.527 522.914 856.886 524.584 848.525 526.791C844.678 527.726 840.96 529.001 837.434 530.593C836.804 530.887 836.184 531.206 835.583 531.542L825.122 537.358C821.862 539.163 818.532 541.035 816.291 543.712C815.924 544.168 815.59 544.641 815.291 545.131C813.876 547.595 812.84 550.201 812.211 552.886C806.77 571.905 801.32 590.941 797.589 610.245C797.339 611.521 797.099 612.805 796.839 614.089L796.749 614.492C796.704 614.397 796.65 614.304 796.589 614.215C769.826 627.795 742.073 640.049 713.48 649.861L707.269 606.216C706.622 602.668 706.407 599.074 706.629 595.49C707.219 589.841 709.959 584.486 710.7 578.854C711.401 573.341 710.159 567.776 707.129 562.849C705.949 560.935 704.469 559.055 704.199 556.915C703.929 554.774 705.399 552.819 707.959 552.6C709.959 550.737 710.119 548.194 709.529 545.676C709.216 544.362 708.747 543.077 708.129 541.84C706.429 538.332 704.279 534.513 705.739 530.929C706.125 530.28 706.298 529.555 706.239 528.831C706.25 528.787 706.25 528.741 706.239 528.697C705.899 527.757 704.569 527.345 703.879 526.548C702.579 525.062 703.879 523.04 704.679 521.327C705.457 519.488 705.909 517.562 706.019 515.612C706.129 514.529 706.209 513.438 706.349 512.363C706.544 510.91 706.855 509.468 707.279 508.049C709.709 500.009 715.552 492.99 723.711 488.309C727.601 486.109 731.932 484.506 735.902 482.433C739.97 480.132 743.852 477.609 747.524 474.879C756.331 468.724 765.489 462.922 774.997 457.472C785.22 451.612 795.81 446.216 806.72 441.307C809.054 440.249 811.387 439.219 813.721 438.218C816.261 437.099 818.818 436.038 821.392 435.037C829.633 431.738 838.984 432.972 848.095 435.171C851.915 436.086 855.686 437.177 859.326 438.167C862.881 439.137 866.301 440.426 869.527 442.012C877.598 445.99 884.269 451.865 887.039 459.285C887.044 459.332 887.044 459.38 887.039 459.427C888.799 464.077 888.909 469.063 888.749 473.956Z" fill="black"/>
<path d="M793.789 334.931C793.688 334.736 793.541 334.56 793.356 334.414C793.172 334.268 792.955 334.155 792.717 334.081C792.479 334.008 792.226 333.975 791.973 333.985C791.72 333.996 791.472 334.049 791.244 334.142C791.016 334.235 790.813 334.365 790.647 334.525C790.48 334.686 790.354 334.873 790.276 335.075C790.198 335.277 790.17 335.491 790.192 335.703C790.215 335.914 790.289 336.12 790.408 336.308L789.408 336.719L819.232 388.018L824.622 385.811L794.799 334.478L793.789 334.931Z" fill="#3F3D56"/>
<path d="M831.073 281.198C866.423 281.198 895.08 257.148 895.08 227.481C895.08 197.814 866.423 173.765 831.073 173.765C795.723 173.765 767.066 197.814 767.066 227.481C767.066 257.148 795.723 281.198 831.073 281.198Z" fill="#FBBEBE"/>
<path d="M915.552 194.227C915.253 189.957 914.496 185.718 913.292 181.562C909.532 167.99 902.661 154.628 890.83 144.883C890.101 142.501 889.229 140.151 888.219 137.842C888.2 137.784 888.177 137.728 888.149 137.674C884.62 129.539 879.518 121.948 873.048 115.205C869.297 111.294 864.437 107.433 858.456 107.282C856.776 107.232 854.996 107.475 853.455 106.829C852.323 106.214 851.369 105.394 850.665 104.428C847.703 101.287 843.775 98.8852 839.306 97.4814C834.836 96.0776 829.993 95.7255 825.302 96.4631L824.682 96.5722C824.332 96.6309 823.982 96.6981 823.682 96.7736C823.382 96.8491 822.842 96.975 822.422 97.0842C822.882 97.722 823.332 98.3683 823.772 99.023C824.959 100.797 826.059 102.61 827.073 104.462C827.913 106.006 828.689 107.576 829.403 109.17C819.162 110.152 810.821 116.254 803.2 122.062L785.258 135.726C785.225 135.75 785.195 135.775 785.168 135.802L784.648 136.222C784.518 136.331 784.388 136.44 784.268 136.557C784.219 136.592 784.176 136.632 784.138 136.675C783.988 136.809 783.848 136.952 783.708 137.095C783.458 137.359 783.234 137.64 783.038 137.934C782.94 138.06 782.853 138.192 782.778 138.328C782.75 138.369 782.727 138.411 782.708 138.454C782.642 138.569 782.586 138.686 782.538 138.807C782.533 138.823 782.533 138.841 782.538 138.857C782.51 138.926 782.486 138.996 782.468 139.067C782.263 139.658 782.324 140.291 782.638 140.846L794.469 140.955H795.859C795.919 142.282 795.969 143.616 796.029 144.942C794.152 146.122 792.349 147.382 790.629 148.719C788.752 150.177 786.992 151.736 785.358 153.386C774.687 164.205 769.116 178.179 768.556 192.246C768.556 192.683 768.556 193.086 768.556 193.539C768.556 194.823 768.556 196.107 768.556 197.383C768.556 198.222 768.646 199.062 768.726 199.901C768.731 200.994 769.076 202.068 769.726 203.015C769.811 203.121 769.905 203.222 770.006 203.317C770.606 203.864 771.326 204.308 772.126 204.626L772.987 204.979C773.417 205.155 773.827 205.323 774.227 205.516C777.997 207.304 780.227 210.753 783.658 212.969C783.858 213.095 784.058 213.221 784.258 213.33L784.708 213.582L784.988 213.733L785.368 213.918C785.617 214.044 785.874 214.159 786.138 214.262V214.262L786.618 214.463H786.698C787.098 214.614 787.498 214.757 787.908 214.883L788.478 215.051L788.648 215.101C788.808 215.143 788.978 215.193 789.148 215.227C789.488 215.311 789.822 215.386 790.148 215.454L791.149 215.638C791.539 215.697 791.939 215.756 792.339 215.798L792.929 215.865L793.529 215.915C794.482 215.988 795.442 216.03 796.409 216.041C799.443 216.025 802.473 215.849 805.48 215.512L831.003 212.994C836.794 212.432 842.704 211.87 848.415 212.86C853.255 213.699 857.716 215.63 862.416 216.998C863.477 217.308 864.537 217.594 865.607 217.837C865.997 217.93 866.397 218.03 866.797 218.114L867.347 218.232L868.627 218.492C869.087 218.584 869.547 218.677 870.007 218.752C870.657 218.87 871.298 218.97 871.948 219.071C872.388 219.147 872.838 219.205 873.288 219.273H873.378L874.658 219.44H874.968L875.918 219.549C876.378 219.608 876.838 219.659 877.308 219.701C878.328 219.807 879.348 219.899 880.369 219.978C882.019 220.112 883.679 220.213 885.369 220.296L887.029 220.38L888.689 220.448L893.69 220.632H893.91H894.61C896.689 220.754 898.778 220.664 900.831 220.364C901.191 220.305 901.541 220.238 901.891 220.154C902.241 220.07 902.531 219.986 902.891 219.885C906.641 218.677 909.382 215.898 911.282 212.927C911.682 212.298 912.052 211.668 912.392 211.022C912.732 210.376 913.042 209.721 913.322 209.066C913.672 208.227 913.972 207.43 914.232 206.59C914.312 206.364 914.382 206.137 914.442 205.902C914.502 205.667 914.642 205.205 914.722 204.853C914.972 203.888 915.162 202.914 915.302 201.932C915.302 201.622 915.392 201.303 915.432 200.992C915.522 200.153 915.592 199.372 915.632 198.55C915.632 197.929 915.632 197.299 915.632 196.67C915.622 195.99 915.552 195.092 915.552 194.227ZM889.91 144.12C889.099 143.482 888.269 142.869 887.429 142.29C888.364 142.785 889.198 143.403 889.9 144.12H889.91Z" fill="#464353"/>
<path d="M708.229 224.527C700.698 223.746 693.228 220.977 685.797 222.336C681.146 223.176 677.146 225.601 673.425 228.094C659.58 237.407 647.807 248.702 638.651 261.457C637.099 263.364 636.008 265.509 635.441 267.769C634.961 270.387 635.811 273.048 636.821 275.558C643.662 292.52 658.294 306.688 664.954 323.701C671.955 341.595 669.525 361.152 664.364 379.482C657.967 402.112 647.571 423.811 633.521 443.858C631.613 446.839 629.224 449.585 626.42 452.016C622.78 454.954 617.889 457.052 615.729 460.896C614.729 462.575 614.439 464.489 613.729 466.285C611.729 471.321 606.888 475.635 606.418 480.948C606.068 485.002 608.358 488.837 609.748 492.698C612.093 499.331 611.844 506.42 609.038 512.926C603.968 524.593 590.706 535.202 594.557 547.195C603.148 545.122 612.669 542.428 616.719 535.739C618.149 533.372 618.859 530.552 621.27 528.823C626.08 525.39 634.271 528.495 639.382 525.34C643.242 522.939 643.382 518.021 641.662 514.244C639.942 510.467 636.981 507.143 635.661 503.257C633.361 496.249 637.041 488.837 636.361 481.594C636.041 478.237 634.811 475.022 634.721 471.682C634.551 465.194 638.832 459.092 644.522 454.685C650.213 450.279 657.244 447.358 664.164 444.479L690.327 433.568C699.818 429.623 710.219 424.814 713.33 416.32C714.51 413.139 714.52 409.748 714.58 406.425C715.47 355.637 730.632 305.874 745.703 256.681C748.044 249.06 750.424 241.406 753.904 234.087C757.385 226.768 764.195 220.893 767.666 214.094C747.534 212.113 729.142 226.726 708.229 224.527Z" fill="#464353"/>
<path d="M852.455 543.141C854.766 554.892 856.176 566.894 857.276 578.838C839.274 591.36 819.892 602.255 800.2 612.36C799.079 612.939 797.949 613.51 796.819 614.039L796.729 614.442C796.684 614.346 796.631 614.253 796.569 614.165C795.041 611.394 792.37 609.182 789.048 607.937C781.668 594.927 774.293 581.918 766.926 568.908C762.925 561.883 758.925 554.791 756.925 547.212C756.925 547.053 756.835 546.885 756.805 546.725C755.285 540.85 754.935 534.748 753.924 528.797C753.413 525.389 752.498 522.032 751.194 518.776C749.994 515.88 748.344 513.068 746.884 510.24C745.083 506.748 743.573 503.215 743.503 499.446C743.503 498.246 743.593 496.928 742.893 495.921C742.145 495.054 741.221 494.304 740.163 493.705C738.843 492.723 737.842 491.475 737.254 490.079C736.666 488.682 736.511 487.184 736.803 485.723C730.802 485.984 727.421 491.397 725.011 495.988C722.82 500.479 719.942 504.711 716.45 508.578C713.905 511.341 710.669 513.601 706.969 515.2C706.639 515.335 706.309 515.469 705.969 515.586C697.618 518.675 687.867 517.584 678.816 516.191C670.905 514.974 662.724 513.463 656.364 509.333L655.683 508.88C653.8 507.567 652.121 506.061 650.683 504.398C645.352 498.288 642.992 490.239 641.682 482.576C641.562 481.854 641.442 481.132 641.332 480.41C640.423 474.996 640.171 469.518 640.582 464.06C640.702 462.718 640.872 461.375 641.082 460.04C641.222 459.201 641.372 458.294 641.542 457.421C641.537 457.396 641.537 457.371 641.542 457.346C641.802 455.961 642.082 454.568 642.362 453.149C643.362 448.39 644.362 443.506 647.363 439.41C649.337 436.861 651.828 434.623 654.723 432.796C655.803 432.082 656.914 431.402 658.034 430.748C659.854 429.69 661.724 428.683 663.624 427.735C668.405 425.333 673.424 423.283 678.626 421.608C679.866 421.205 681.126 420.827 682.386 420.466C687.285 419.004 692.557 418.654 697.668 419.451C702.198 420.001 706.775 420.225 711.35 420.122C723.081 419.929 734.862 418.049 746.574 416.832C762.835 415.153 780.307 414.952 794.489 421.868C795.169 422.195 795.829 422.539 796.489 422.9C803.49 426.744 809.131 432.133 813.681 438.151C814.681 439.418 815.551 440.719 816.411 442.037C818.394 445.061 820.187 448.171 821.782 451.353C822.726 452.916 823.236 454.637 823.272 456.389C823.249 456.722 823.196 457.053 823.112 457.379C822.842 458.571 822.302 459.73 822.112 460.938C821.482 465.512 826.113 469.331 827.843 473.687C828.963 476.524 828.843 479.563 829.473 482.551C830.383 486.747 832.833 490.524 835.034 494.301C838.51 500.381 841.484 506.654 843.935 513.077C845.675 517.55 847.165 522.091 848.475 526.674C848.902 528.145 849.305 529.62 849.685 531.097C850.775 535.159 851.665 539.138 852.455 543.141Z" fill="#F86D70"/>
<path d="M959.087 418.846V424.722L957.797 424.705L956.357 424.688L940.275 424.52L900.651 424.084L889.529 423.966L886.649 423.933L869.957 423.756L846.435 423.496L796.529 422.951L709.929 422.011L678.676 421.675L666.134 421.54L654.593 421.415L647.402 421.331L640.592 421.255L590.096 420.71L576.094 420.558L573.044 420.525L571.064 416.236L556.672 385.089L554.042 379.398L556.042 372.684L565.043 377.72L570.584 378.299L661.804 387.817L678.926 389.604L715.23 393.398L750.794 397.108L764.736 398.56L847.235 407.171L870.287 409.58L889.37 411.569L957.217 418.653L959.087 418.846Z" fill="#3F3D56"/>
<path d="M556.042 372.684L574.044 412.132L959.087 418.846V376.041L556.042 372.684Z" fill="#504F60"/>
<path d="M576.044 416.328L579.045 657.213L593.046 655.535L590.046 416.328H576.044Z" fill="#3F3D56"/>
<path d="M957.797 424.697H956.357C954.025 439.715 950.168 454.538 944.826 469.004L940.275 424.52L940.085 422.623L956.907 420.995L957.467 420.945L957.797 424.697Z" fill="#3F3D56"/>
<path d="M903.081 396.185L756.565 398.703L711.06 386.113L833.073 380.238L903.081 396.185Z" fill="white"/>
<path d="M719.291 347.236C717.737 347.736 716.361 348.559 715.29 349.628C714.453 350.786 713.943 352.089 713.8 353.438L711.34 365.751C710.964 366.877 711.031 368.075 711.53 369.167C712.17 370.199 714.03 370.737 714.96 369.88C714.84 372.289 715.09 374.858 716.76 376.822C718.43 378.786 721.931 379.818 724.291 378.45C724.661 378.956 725.158 379.389 725.747 379.718C726.336 380.047 727.004 380.264 727.703 380.355C728.402 380.446 729.117 380.408 729.797 380.245C730.477 380.081 731.106 379.795 731.642 379.407C730.222 379.81 730.122 381.631 731.132 382.554C732.263 383.392 733.705 383.876 735.212 383.922C752.787 386.001 770.705 384.109 787.118 378.442C788.668 377.904 784.588 361.865 784.178 360.22C783.178 356.351 782.678 351.625 778.787 349.023C769.486 342.796 752.964 341.57 741.633 342.309C733.891 342.8 726.32 344.47 719.291 347.236V347.236Z" fill="#FBBEBE"/>
<path opacity="0.1" d="M868.367 349.099C832.193 349.678 795.269 350.173 760.745 341.083C764.043 351.808 763.815 363.083 760.085 373.708L929.224 385.458C936.395 385.953 966.128 388.774 973.119 387.355C980.11 385.937 914.462 367.79 917.113 362.175C924.404 346.707 948.826 337.642 931.234 337.063C909.032 336.324 890.74 348.746 868.367 349.099Z" fill="black"/>
<path d="M869.367 350.778C833.193 351.357 796.269 351.852 761.745 342.762C765.043 353.487 764.815 364.762 761.085 375.386L930.224 387.137C937.395 387.632 967.128 390.494 974.119 389.034C981.11 387.573 979.47 380.38 982.12 374.765C989.411 359.297 949.826 339.321 932.234 338.742C910.032 338.003 891.74 350.425 869.367 350.778Z" fill="#464353"/>
<path d="M811.851 353.111C813.405 353.61 814.782 354.433 815.851 355.503C816.687 356.662 817.2 357.965 817.351 359.313L819.812 371.626C820.182 372.753 820.115 373.949 819.622 375.042C818.982 376.075 817.111 376.612 816.191 375.756C816.301 378.165 816.061 380.733 814.391 382.697C812.721 384.661 809.22 385.693 806.85 384.325C806.48 384.831 805.983 385.264 805.394 385.593C804.805 385.922 804.138 386.139 803.439 386.23C802.739 386.321 802.025 386.284 801.345 386.12C800.664 385.956 800.035 385.67 799.499 385.282C800.92 385.685 801.03 387.506 800.019 388.429C798.884 389.267 797.44 389.751 795.929 389.798C778.357 391.877 760.443 389.985 744.033 384.317C742.483 383.78 746.553 367.74 746.974 366.095C747.974 362.226 748.474 357.5 752.364 354.899C761.655 348.671 778.187 347.445 789.518 348.184C797.257 348.676 804.824 350.346 811.851 353.111V353.111Z" fill="#FBBEBE"/>
<path d="M572.824 326.378C569.504 329.971 566.173 333.638 564.033 337.827C559.943 345.817 560.543 354.865 561.223 363.543C561.413 366.061 561.653 368.63 563.223 370.72C564.581 372.298 566.371 373.58 568.444 374.455C577.105 378.584 587.246 379.818 597.147 380.741C612.309 382.151 627.524 383.01 642.792 383.318C680.616 384.09 719.021 381.496 755.865 388.689C751.304 382.873 751.314 375.176 753.864 368.546C756.415 361.915 761.325 356.141 766.136 350.458C749.274 345.976 731.192 352.976 713.53 352.28C695.398 351.566 678.616 342.77 660.464 342.779C656.563 342.779 652.593 343.19 648.803 342.401C645.012 341.612 641.342 339.211 640.992 335.947C645.832 336.861 650.423 333.387 652.423 329.576C654.423 325.766 654.783 321.46 656.724 317.624C661.554 308.081 674.606 303.658 682.726 295.802C684.007 294.56 685.217 293.091 685.177 291.446C684.986 290.052 684.287 288.742 683.177 287.694C676.426 280.14 666.255 275.943 657.804 270.068C654.863 268.02 648.933 260.299 645.632 259.585C639.512 258.267 634.321 265.687 630.341 269.304C610.245 287.63 591.073 306.654 572.824 326.378Z" fill="#464353"/>
<path opacity="0.07" d="M773.927 324.247C776.462 325.824 778.715 327.698 780.617 329.811C781.565 330.873 782.241 332.087 782.601 333.379C782.96 334.671 782.997 336.011 782.708 337.315C782.397 334.882 783.043 332.431 784.547 330.335C786.052 328.24 788.331 326.614 791.039 325.707L773.927 324.247Z" fill="black"/>
<g opacity="0.1">
<path opacity="0.1" d="M829.393 104.143C828.216 101.52 826.861 98.9554 825.332 96.4631C824.344 96.6225 823.369 96.8327 822.412 97.0926C824.128 99.4845 825.674 101.959 827.043 104.504C827.813 104.336 828.593 104.218 829.393 104.143Z" fill="black"/>
<path opacity="0.1" d="M887.419 137.237C887.689 137.422 887.949 137.632 888.209 137.825C888.19 137.77 888.167 137.717 888.139 137.665C887.913 137.525 887.673 137.383 887.419 137.237Z" fill="black"/>
<path opacity="0.1" d="M794.449 140.93C794.969 140.586 795.449 140.225 796.009 139.89L795.849 135.903L785.168 135.811C783.438 137.145 781.598 139.059 782.618 140.846L794.449 140.93Z" fill="black"/>
<path opacity="0.1" d="M911.222 208.042C909.322 211.014 906.581 213.8 902.831 215C899.941 215.924 896.76 215.84 893.67 215.722C883.129 215.361 872.408 214.967 862.447 212.038C857.786 210.661 853.325 208.739 848.445 207.891C842.734 206.901 836.824 207.463 831.033 208.034L805.51 210.552C797.979 211.291 789.588 211.844 783.578 207.967C780.137 205.751 777.917 202.301 774.147 200.522C772.556 199.767 770.666 199.28 769.636 198.004C768.986 197.057 768.641 195.983 768.636 194.89C768.556 194.009 768.506 193.128 768.466 192.246C768.358 194.807 768.414 197.371 768.636 199.926C768.641 201.019 768.986 202.093 769.636 203.04C770.636 204.307 772.556 204.794 774.147 205.558C777.917 207.337 780.147 210.787 783.578 213.003C789.578 216.88 797.979 216.36 805.51 215.588L831.033 213.07C836.824 212.499 842.734 211.937 848.445 212.927C853.285 213.767 857.746 215.697 862.447 217.073C872.448 220.003 883.129 220.431 893.67 220.758C896.76 220.867 899.941 220.959 902.831 220.036C906.581 218.836 909.322 216.049 911.222 213.078C914.902 207.329 915.932 200.807 915.542 194.236C915.328 199.048 913.853 203.762 911.222 208.042V208.042Z" fill="black"/>
</g>
<path opacity="0.1" d="M829.103 109.54L843.104 120.451C843.104 120.451 831.103 116.254 829.103 109.54Z" fill="black"/>
</g>
<defs>
<clipPath id="clip0">
<rect width="983" height="674" fill="white"/>
</clipPath>
</defs>
</svg>
